<?xml version="1.0" standalone="no"?>
<!DOCTYPE svg PUBLIC "-//W3C//DTD SVG 20010904//EN"
 "http://www.w3.org/TR/2001/REC-SVG-20010904/DTD/svg10.dtd">
<svg version="1.0" xmlns="http://www.w3.org/2000/svg"
 width="682.000000pt" height="682.000000pt" viewBox="0 0 682.000000 682.000000"
 preserveAspectRatio="xMidYMid meet">
<metadata>
Created by potrace 1.14, written by Peter Selinger 2001-2017
</metadata>
<g transform="translate(0.000000,682.000000) scale(0.100000,-0.100000)"
fill="#000000" stroke="none">
<path d="M2690 6794 c-30 -8 -64 -16 -75 -18 -95 -19 -334 -92 -348 -105 -4
-4 2 -32 13 -61 163 -412 -133 -857 -573 -862 -122 -1 -217 24 -325 85 -56 31
-160 126 -198 180 l-19 27 -64 -57 c-81 -72 -253 -246 -292 -295 l-29 -36 50
-37 c103 -76 205 -236 226 -355 2 -14 7 -35 9 -48 11 -47 6 -160 -10 -232 -43
-189 -181 -355 -360 -434 -135 -60 -314 -69 -446 -21 -41 14 -81 29 -90 31
-12 4 -23 -19 -52 -118 -40 -136 -82 -301 -92 -364 l-6 -40 43 -3 c126 -7 279
-82 380 -185 151 -154 212 -371 163 -581 -19 -85 -42 -138 -93 -212 -99 -146
-264 -248 -437 -268 -27 -4 -51 -8 -54 -10 -10 -11 86 -388 128 -497 l10 -26
61 25 c34 13 69 26 78 28 125 23 201 23 299 0 391 -90 595 -522 420 -885 -33
-68 -101 -158 -151 -200 -17 -14 -41 -35 -55 -46 l-25 -21 186 -187 c103 -102
191 -186 196 -186 5 0 22 17 38 37 184 245 522 320 797 176 133 -69 253 -211
302 -358 42 -126 40 -275 -5 -402 -12 -32 -23 -65 -26 -74 -5 -13 10 -22 73
-42 211 -69 442 -123 444 -103 1 14 7 50 15 96 4 19 8 42 10 50 6 33 86 178
121 220 75 92 175 159 298 201 99 33 279 34 375 0 142 -49 275 -154 348 -275
40 -66 79 -176 87 -248 3 -29 7 -53 8 -54 4 -5 296 66 372 90 159 50 155 48
145 65 -48 92 -73 237 -59 346 18 140 52 221 136 328 211 265 589 311 868 105
55 -40 77 -63 134 -138 l19 -24 38 33 c65 55 212 202 282 279 l65 73 -24 16
c-13 9 -53 46 -89 82 -84 86 -147 202 -168 311 -8 45 -8 205 0 250 23 118 105
261 194 339 73 65 200 132 274 146 14 3 36 7 50 10 94 20 251 -1 361 -49 l36
-15 36 117 c39 126 83 296 93 358 3 22 8 42 10 45 2 4 -23 9 -56 13 -199 23
-390 158 -483 343 -90 177 -86 415 10 583 104 181 302 311 491 323 l39 2 -23
108 c-26 120 -40 174 -86 320 -25 78 -35 97 -47 93 -9 -3 -50 -17 -91 -32
-187 -66 -435 -20 -587 110 -158 133 -236 305 -228 501 4 127 23 198 77 293
46 82 157 200 200 214 9 3 4 16 -14 41 -33 42 -218 230 -301 305 l-59 53 -35
-47 c-209 -273 -605 -326 -879 -118 -224 170 -307 471 -201 732 l24 62 -51 19
c-106 40 -462 129 -472 118 -2 -2 -6 -23 -9 -48 -3 -24 -13 -69 -22 -99 -9
-30 -17 -57 -18 -60 0 -3 -16 -34 -35 -70 -47 -88 -165 -204 -256 -251 -166
-86 -352 -96 -524 -28 -146 58 -267 172 -335 315 -34 71 -71 217 -60 235 8 12
-28 10 -95 -7z m870 -1679 c30 -3 73 -7 95 -10 166 -17 426 -103 584 -192 25
-14 58 -32 72 -40 56 -29 54 -38 -18 -72 -140 -64 -242 -132 -398 -263 -130
-108 -463 -454 -554 -573 -45 -60 -85 -108 -87 -107 -5 5 -107 -12 -142 -22
-9 -3 -33 -8 -52 -11 -19 -3 -53 -11 -75 -16 -22 -6 -49 -13 -60 -15 -18 -3
-66 -14 -100 -23 -3 0 -6 -1 -7 -1 -2 0 -27 -7 -57 -16 -30 -9 -63 -18 -73
-20 -10 -2 -27 -6 -38 -8 -11 -3 -25 -8 -31 -12 -8 -4 -9 5 -5 32 11 73 13 79
24 80 7 1 13 2 15 4 1 1 9 3 17 5 8 1 35 8 60 15 25 7 52 14 60 15 263 59 341
76 370 79 9 1 20 5 27 9 6 4 18 4 27 1 9 -3 16 -1 16 4 0 6 8 11 18 10 17 0
68 9 88 16 6 3 14 19 18 38 4 18 10 44 13 58 10 47 11 55 13 55 2 0 11 38 12
53 1 6 4 12 7 13 5 1 57 8 88 11 12 1 30 37 37 73 2 11 20 83 41 160 20 77 38
151 41 165 3 14 10 43 16 65 6 22 13 45 14 50 2 6 6 24 9 40 3 17 12 51 20 78
10 35 11 47 2 47 -11 0 -53 -11 -209 -54 -31 -8 -68 -17 -82 -20 -14 -3 -30
-8 -36 -11 -6 -4 -23 -8 -38 -10 -15 -3 -76 -18 -136 -34 -60 -17 -113 -28
-118 -25 -4 3 -8 0 -8 -7 0 -7 -2 -10 -6 -7 -3 3 -25 0 -49 -7 -24 -8 -46 -11
-49 -8 -3 4 -6 2 -6 -3 0 -5 -8 -10 -17 -10 -10 -1 -29 -4 -43 -7 -14 -4 -43
-11 -65 -16 -22 -5 -51 -12 -65 -15 -14 -3 -35 -7 -47 -10 -13 -4 -33 -8 -45
-12 -13 -3 -34 -7 -48 -10 -14 -3 -33 -7 -42 -10 -9 -3 -26 -7 -37 -9 -12 -3
-31 -7 -43 -10 -74 -18 -126 -28 -145 -29 -13 0 -23 -4 -23 -7 0 -4 -21 -10
-47 -15 -27 -4 -50 -8 -53 -9 -44 -11 -120 -25 -120 -21 0 1 12 13 27 27 20
18 24 19 13 4 -14 -19 -14 -19 3 -6 9 7 17 21 17 30 0 20 63 84 73 75 4 -4 7
0 7 10 0 9 11 21 25 26 14 5 37 21 50 36 13 14 26 25 29 25 3 -1 19 11 35 25
16 14 32 24 35 22 3 -1 13 7 21 20 9 12 21 20 26 17 5 -4 9 -1 9 4 0 6 6 11
14 11 8 0 17 7 20 16 3 8 10 12 16 9 5 -3 10 -1 10 5 0 6 5 8 10 5 6 -3 10 -1
10 4 0 6 7 11 15 11 8 0 15 5 15 11 0 5 5 7 10 4 6 -3 10 -1 10 5 0 6 5 8 10
5 6 -3 10 -2 10 4 0 9 30 23 41 18 3 -1 13 6 23 16 10 9 22 15 27 12 5 -4 9
-1 9 4 0 6 3 10 8 9 4 -1 17 3 30 10 12 7 22 10 22 7 0 -3 10 1 23 10 13 8 27
12 30 8 4 -3 7 -1 7 6 0 7 7 11 15 8 8 -4 17 -2 20 4 4 5 11 7 16 4 5 -4 9 -1
9 5 0 7 7 10 15 7 8 -4 17 -2 21 4 3 6 12 8 19 5 7 -2 16 -1 21 4 8 7 29 13
99 25 11 2 21 4 23 5 1 2 11 4 22 5 11 1 21 4 23 5 3 4 60 9 146 15 40 2 75 5
76 7 5 4 141 0 205 -7z m39 -307 c0 -13 -3 -18 -5 -12 -3 6 -17 10 -32 8 -16
-2 -19 -1 -7 2 11 3 24 10 30 15 13 13 15 11 14 -13z m-120 -29 c-17 -11 -52
-12 -46 -1 3 4 17 8 33 9 19 1 23 -1 13 -8z m108 -21 c-3 -8 -6 -5 -6 6 -1 11
2 17 5 13 3 -3 4 -12 1 -19z m-170 6 c-3 -3 -12 -4 -19 -1 -8 3 -5 6 6 6 11 1
17 -2 13 -5z m-47 -13 c-18 -10 -97 -25 -89 -17 5 5 73 23 94 25 6 0 3 -3 -5
-8z m950 5 c0 -2 -7 -7 -16 -10 -8 -3 -12 -2 -9 4 6 10 25 14 25 6z m-1065
-36 c-11 -5 -27 -9 -35 -9 -13 -1 -13 0 0 9 8 5 24 9 35 9 l20 0 -20 -9z
m-100 -20 c-3 -5 -12 -10 -18 -10 -7 0 -6 4 3 10 19 12 23 12 15 0z m42 4 c-3
-3 -12 -4 -19 -1 -8 3 -5 6 6 6 11 1 17 -2 13 -5z m376 -14 c-3 -12 -8 -19
-11 -16 -5 6 5 36 12 36 2 0 2 -9 -1 -20z m-473 -10 c-14 -4 -34 -8 -45 -8
-16 0 -15 2 5 8 14 4 34 8 45 8 16 0 15 -2 -5 -8z m-135 -30 c-3 -5 -16 -10
-28 -9 -20 1 -20 2 3 9 14 4 26 8 28 9 2 1 0 -3 -3 -9z m589 -29 c-4 -17 -9
-30 -11 -27 -3 2 -2 19 2 36 9 41 17 33 9 -9z m-647 13 c-3 -3 -12 -4 -19 -1
-8 3 -5 6 6 6 11 1 17 -2 13 -5z m-57 -13 c-26 -16 -90 -24 -90 -12 0 6 6 8
13 5 7 -2 24 0 38 5 13 5 31 10 39 10 13 0 13 -1 0 -8z m1240 5 c0 -2 -8 -10
-17 -17 -16 -13 -17 -12 -4 4 13 16 21 21 21 13z m-1347 -33 c-7 -2 -19 -2
-25 0 -7 3 -2 5 12 5 14 0 19 -2 13 -5z m1307 3 c0 -2 -8 -10 -17 -17 -16 -13
-17 -12 -4 4 13 16 21 21 21 13z m-1392 -21 c-2 -3 -20 -7 -39 -10 l-34 -6 35
14 c33 12 50 13 38 2z m886 -10 c-4 -8 -8 -15 -10 -15 -2 0 -4 7 -4 15 0 8 4
15 10 15 5 0 7 -7 4 -15z m-969 -5 c-3 -5 -12 -10 -18 -10 -7 0 -6 4 3 10 19
12 23 12 15 0z m1435 7 c0 -2 -10 -12 -22 -23 l-23 -19 19 23 c18 21 26 27 26
19z m-1527 -28 c-5 -5 -22 -10 -38 -13 -17 -2 -23 -1 -15 1 8 3 19 8 23 12 11
10 40 10 30 0z m1041 -38 c-4 -17 -9 -30 -11 -27 -3 2 -2 19 2 36 9 41 17 33
9 -9z m-1124 13 c0 -2 -7 -4 -15 -4 -8 0 -15 4 -15 10 0 5 7 7 15 4 8 -4 15
-8 15 -10z m-45 -4 c-3 -5 -16 -10 -28 -9 -20 1 -20 2 3 9 14 4 26 8 28 9 2 1
0 -3 -3 -9z m1580 -10 c-10 -11 -22 -20 -28 -20 -5 0 1 9 14 20 31 25 37 25
14 0z m-1638 -6 c-3 -3 -12 -4 -19 -1 -8 3 -5 6 6 6 11 1 17 -2 13 -5z m-47
-8 c0 -3 -26 -10 -57 -16 -32 -6 -67 -14 -78 -17 -11 -3 -17 -2 -13 2 12 12
148 40 148 31z m1257 -48 c-3 -8 -6 -5 -6 6 -1 11 2 17 5 13 3 -3 4 -12 1 -19z
m343 -11 c0 -2 -17 -19 -37 -38 l-38 -34 34 38 c33 34 41 42 41 34z m-361 -61
c-6 -26 -13 -45 -16 -43 -2 3 1 26 8 51 6 26 13 45 16 43 2 -3 -1 -26 -8 -51z
m1018 -52 c-3 -3 -12 -4 -19 -1 -8 3 -5 6 6 6 11 1 17 -2 13 -5z m-2537 -29
c0 -8 -4 -15 -10 -15 -5 0 -7 7 -4 15 4 8 8 15 10 15 2 0 4 -7 4 -15z m1740
-8 c0 -2 -10 -12 -22 -23 l-23 -19 19 23 c18 21 26 27 26 19z m1085 -27 c10
-11 16 -20 13 -20 -3 0 -13 9 -23 20 -10 11 -16 20 -13 20 3 0 13 -9 23 -20z
m-1412 3 c-7 -2 -19 -2 -25 0 -7 3 -2 5 12 5 14 0 19 -2 13 -5z m-1434 -62
c-6 -29 -13 -50 -15 -48 -3 2 1 28 7 56 6 29 13 50 15 48 3 -2 -1 -28 -7 -56z
m1317 38 c-44 -11 -81 -17 -83 -15 -6 5 115 34 142 34 11 0 -16 -9 -59 -19z
m-109 -25 c-3 -3 -12 -4 -19 -1 -8 3 -5 6 6 6 11 1 17 -2 13 -5z m493 2 c0 -2
-8 -10 -17 -17 -16 -13 -17 -12 -4 4 13 16 21 21 21 13z m-585 -22 c-27 -7
-54 -13 -60 -13 -17 2 69 27 90 27 11 0 -2 -6 -30 -14z m1155 3 c0 -2 -10 -12
-22 -23 l-23 -19 19 23 c18 21 26 27 26 19z m630 -32 c0 -5 -5 -3 -10 5 -5 8
-10 20 -10 25 0 6 5 3 10 -5 5 -8 10 -19 10 -25z m-1863 9 c-3 -3 -12 -4 -19
-1 -8 3 -5 6 6 6 11 1 17 -2 13 -5z m-47 -11 c-57 -18 -70 -21 -70 -13 0 9 29
17 65 18 13 0 15 -1 5 -5z m-150 -39 c-25 -7 -49 -13 -55 -13 -18 1 59 27 80
28 11 0 0 -7 -25 -15z m1360 13 c0 -2 -17 -19 -37 -38 l-38 -34 34 38 c33 34
41 42 41 34z m-2229 -40 c-10 -9 -11 -8 -5 6 3 10 9 15 12 12 3 -3 0 -11 -7
-18z m789 9 c0 -2 -7 -6 -15 -10 -8 -3 -15 -1 -15 4 0 6 7 10 15 10 8 0 15 -2
15 -4z m-55 -18 c-11 -6 -23 -16 -27 -22 -5 -8 -8 -7 -8 1 0 12 28 32 45 32 6
0 1 -5 -10 -11z m2212 -20 c-3 -7 -5 -2 -5 12 0 14 2 19 5 13 2 -7 2 -19 0
-25z m-2950 -10 c-3 -8 -6 -5 -6 6 -1 11 2 17 5 13 3 -3 4 -12 1 -19z m2528 1
c62 -18 119 -81 144 -162 l21 -68 -36 -89 -36 -89 -57 -12 c-32 -6 -63 -14
-68 -18 -6 -3 -32 -60 -58 -126 -52 -131 -108 -249 -161 -336 -27 -44 -43 -61
-76 -73 -55 -23 -109 -31 -198 -31 -117 0 -151 35 -155 162 -5 144 78 394 194
586 70 116 118 168 193 206 112 57 209 73 293 50z m-1834 -63 c-9 -30 -17 -53
-19 -51 -6 6 21 105 29 105 3 0 -1 -24 -10 -54z m-706 4 c-9 -41 -17 -33 -9 9
4 17 9 30 11 27 3 -2 2 -19 -2 -36z m2155 36 c0 -2 -8 -10 -17 -17 -16 -13
-17 -12 -4 4 13 16 21 21 21 13z m984 -57 c9 -23 15 -43 12 -46 -2 -2 -59 -17
-127 -32 -76 -18 -116 -23 -104 -15 11 7 58 40 105 73 47 32 88 59 91 60 4 1
14 -18 23 -40z m-1024 7 c0 -2 -8 -10 -17 -17 -16 -13 -17 -12 -4 4 13 16 21
21 21 13z m-2116 -59 c7 -6 6 -7 -4 -4 -8 2 -16 12 -17 23 -2 13 -1 15 4 4 3
-8 11 -19 17 -23z m182 15 c1 -7 0 -8 -2 -3 -3 6 -12 7 -21 4 -11 -4 -14 -3
-9 6 9 14 29 10 32 -7z m-53 1 c-7 -2 -19 -2 -25 0 -7 3 -2 5 12 5 14 0 19 -2
13 -5z m-66 -9 c-3 -3 -12 -4 -19 -1 -8 3 -5 6 6 6 11 1 17 -2 13 -5z m620
-26 c-3 -8 -6 -5 -6 6 -1 11 2 17 5 13 3 -3 4 -12 1 -19z m-510 -10 c-3 -8 -6
-5 -6 6 -1 11 2 17 5 13 3 -3 4 -12 1 -19z m-7 -34 c0 -8 -5 -12 -10 -9 -6 4
-8 11 -5 16 9 14 15 11 15 -7z m520 12 c0 -3 -4 -8 -10 -11 -5 -3 -10 -1 -10
4 0 6 5 11 10 11 6 0 10 -2 10 -4z m-23 -58 c-3 -8 -6 -5 -6 6 -1 11 2 17 5
13 3 -3 4 -12 1 -19z m628 -7 c-11 -10 -116 -34 -122 -27 -2 2 24 11 59 19 35
8 65 15 68 16 2 0 0 -3 -5 -8z m-1145 -21 c0 -11 -4 -20 -9 -20 -5 0 -7 9 -4
20 3 11 7 20 9 20 2 0 4 -9 4 -20z m1005 -10 c-3 -5 -14 -10 -23 -9 -14 0 -13
2 3 9 27 11 27 11 20 0z m-497 -31 c-1 -17 -5 -32 -9 -35 -4 -2 -6 4 -4 13 2
10 4 26 4 36 1 9 3 17 6 17 3 0 4 -14 3 -31z m393 5 c-25 -8 -61 -16 -80 -19
-20 -2 -7 4 29 14 75 22 117 26 51 5z m-920 -30 c-5 -16 -10 -21 -10 -12 -1
18 10 51 15 45 2 -1 -1 -16 -5 -33z m784 -4 c-11 -5 -27 -9 -35 -9 -9 0 -8 4
5 9 11 5 27 9 35 9 9 0 8 -4 -5 -9z m-60 -10 c3 -5 -1 -10 -10 -10 -9 0 -13 5
-10 10 3 6 8 10 10 10 2 0 7 -4 10 -10z m-208 -42 c-3 -7 -5 -2 -5 12 0 14 2
19 5 13 2 -7 2 -19 0 -25z m143 22 c0 -5 -5 -10 -11 -10 -5 0 -7 5 -4 10 3 6
8 10 11 10 2 0 4 -4 4 -10z m-673 -32 c-3 -7 -5 -2 -5 12 0 14 2 19 5 13 2 -7
2 -19 0 -25z m638 22 c-3 -5 -12 -10 -18 -10 -7 0 -6 4 3 10 19 12 23 12 15 0z
m-56 -21 c-17 -11 -39 -12 -39 -1 0 4 12 8 27 9 19 1 22 -1 12 -8z m-779 -111
c-12 -46 -30 -119 -41 -163 -10 -44 -23 -94 -28 -112 -5 -17 -7 -34 -3 -37 3
-3 1 -6 -4 -6 -5 0 -10 -8 -11 -17 -4 -51 -8 -62 -18 -52 -6 6 -11 93 -12 222
-2 174 1 216 13 235 8 12 18 21 22 19 4 -3 27 -2 52 2 25 4 46 3 48 -1 2 -4
-6 -45 -18 -90z m184 58 c-3 -15 -8 -25 -11 -23 -2 3 -1 17 3 31 3 15 8 25 11
23 2 -3 1 -17 -3 -31z m3131 -216 c-2 -91 -6 -179 -8 -197 -21 -122 -32 -170
-58 -260 -28 -100 -38 -125 -101 -263 -31 -68 -120 -221 -141 -242 -7 -7 -24
-29 -37 -48 -61 -89 -281 -306 -349 -344 -9 -5 -18 -12 -21 -15 -30 -38 -305
-181 -430 -224 -530 -183 -1124 -100 -1570 220 -142 102 -162 127 -136 162 9
12 8 13 -3 6 -10 -6 -12 -4 -5 6 4 8 9 27 10 44 1 16 5 39 7 50 15 60 18 73
23 110 6 45 10 68 19 105 3 14 8 40 10 59 3 18 8 37 11 42 2 5 7 21 9 36 3 16
6 35 8 43 2 8 8 33 12 55 12 55 12 54 15 60 4 8 7 23 9 39 0 7 11 16 24 19 12
2 49 12 82 21 33 10 71 19 84 22 14 3 28 7 32 9 4 3 24 7 45 10 22 4 48 9 59
12 26 9 43 12 85 18 19 3 42 7 50 10 13 4 15 -20 15 -178 1 -173 2 -186 28
-261 46 -130 106 -199 219 -251 78 -35 99 -38 253 -38 183 0 251 16 483 110 8
3 5 -11 -8 -42 l-20 -47 117 7 c65 3 134 8 153 10 19 2 85 6 145 9 119 7 206
16 216 22 3 2 21 43 39 91 19 48 38 91 42 94 5 3 32 7 61 8 28 1 55 5 59 9 4
4 41 90 83 192 42 102 80 194 85 205 11 22 166 398 237 573 30 72 49 108 54
100 4 -7 6 -87 4 -178z m-3156 116 c-6 -25 -15 -46 -18 -46 -4 0 -1 22 8 50
19 61 26 59 10 -4z m-22 -88 c-3 -8 -6 -5 -6 6 -1 11 2 17 5 13 3 -3 4 -12 1
-19z m-7 -38 c0 -11 -4 -20 -9 -20 -5 0 -7 9 -4 20 3 11 7 20 9 20 2 0 4 -9 4
-20z m1767 -62 c-3 -8 -6 -5 -6 6 -1 11 2 17 5 13 3 -3 4 -12 1 -19z m-1790
-20 c-3 -8 -6 -5 -6 6 -1 11 2 17 5 13 3 -3 4 -12 1 -19z m-10 -50 c-3 -7 -5
-2 -5 12 0 14 2 19 5 13 2 -7 2 -19 0 -25z m1790 -45 c-2 -16 -4 -5 -4 22 0
28 2 40 4 28 2 -13 2 -35 0 -50z m-1802 -13 c-9 -41 -17 -33 -9 9 4 17 9 30
11 27 3 -2 2 -19 -2 -36z m961 24 c-33 -8 -65 -13 -70 -11 -13 5 70 25 104 25
14 0 -2 -6 -34 -14z m1514 12 c0 -2 -8 -10 -17 -17 -16 -13 -17 -12 -4 4 13
16 21 21 21 13z m-1603 -32 c-3 -3 -12 -4 -19 -1 -8 3 -5 6 6 6 11 1 17 -2 13
-5z m-52 -13 c-11 -5 -36 -11 -55 -14 -35 -6 -34 -6 5 8 43 14 84 19 50 6z
m1585 -36 c-24 -25 -46 -45 -49 -45 -3 0 15 20 39 45 24 25 46 45 49 45 3 0
-15 -20 -39 -45z m-1695 5 c-11 -5 -27 -9 -35 -9 -13 -1 -13 0 0 9 8 5 24 9
35 9 l20 0 -20 -9z m-733 -42 c-6 -6 -7 0 -4 19 5 21 7 23 10 9 2 -10 0 -22
-6 -28z m615 8 c-38 -13 -73 -29 -78 -37 -6 -9 -9 -10 -9 -2 0 6 6 15 13 20
17 11 109 41 127 41 8 0 -16 -10 -53 -22z m-617 -41 c0 -8 -4 -15 -10 -15 -5
0 -7 7 -4 15 4 8 8 15 10 15 2 0 4 -7 4 -15z m520 -62 c-11 -17 -11 -17 -6 0
3 10 7 26 7 35 1 15 2 15 6 0 2 -10 -1 -25 -7 -35z m1371 30 c13 -16 12 -17
-3 -4 -17 13 -22 21 -14 21 2 0 10 -8 17 -17z m-1906 -30 c-3 -21 -10 -42 -15
-46 -4 -5 -3 12 3 37 12 55 22 62 12 9z m2212 1 c-3 -3 -12 -4 -19 -1 -8 3 -5
6 6 6 11 1 17 -2 13 -5z m-54 -11 c-7 -2 -19 -2 -25 0 -7 3 -2 5 12 5 14 0 19
-2 13 -5z m-1636 -35 c-3 -8 -6 -5 -6 6 -1 11 2 17 5 13 3 -3 4 -12 1 -19z
m-537 -28 c0 -5 -2 -10 -4 -10 -3 0 -8 5 -11 10 -3 6 -1 10 4 10 6 0 11 -4 11
-10z m534 -5 c-4 -8 -8 -15 -10 -15 -2 0 -4 7 -4 15 0 8 4 15 10 15 5 0 7 -7
4 -15z m-554 -62 c-11 -17 -11 -17 -6 0 3 10 6 24 7 30 0 9 2 9 5 0 3 -7 0
-20 -6 -30z m543 22 c-3 -9 -8 -14 -10 -11 -3 3 -2 9 2 15 9 16 15 13 8 -4z
m-16 -47 c-3 -8 -6 -5 -6 6 -1 11 2 17 5 13 3 -3 4 -12 1 -19z m2404 -11 c-10
-9 -11 -8 -5 6 3 10 9 15 12 12 3 -3 0 -11 -7 -18z m-2931 3 c0 -5 -5 -10 -11
-10 -5 0 -7 5 -4 10 3 6 8 10 11 10 2 0 4 -4 4 -10z m517 -32 c-3 -8 -6 -5 -6
6 -1 11 2 17 5 13 3 -3 4 -12 1 -19z m810 -30 c-3 -8 -6 -5 -6 6 -1 11 2 17 5
13 3 -3 4 -12 1 -19z m-820 -10 c-3 -8 -6 -5 -6 6 -1 11 2 17 5 13 3 -3 4 -12
1 -19z m3 -22 c0 -3 -4 -8 -10 -11 -5 -3 -10 -1 -10 4 0 6 5 11 10 11 6 0 10
-2 10 -4z m-23 -78 c-3 -7 -5 -2 -5 12 0 14 2 19 5 13 2 -7 2 -19 0 -25z m-10
-40 c-3 -8 -6 -5 -6 6 -1 11 2 17 5 13 3 -3 4 -12 1 -19z m959 -40 l29 -33
-32 29 c-31 28 -38 36 -30 36 2 0 16 -15 33 -32z m-976 -48 c-4 -23 -11 -44
-15 -48 -7 -7 4 66 12 81 9 16 10 5 3 -33z m2328 3 c-10 -2 -26 -2 -35 0 -10
3 -2 5 17 5 19 0 27 -2 18 -5z m-1263 -21 c-3 -3 -11 0 -18 7 -9 10 -8 11 6 5
10 -3 15 -9 12 -12z m1108 11 c-7 -2 -19 -2 -25 0 -7 3 -2 5 12 5 14 0 19 -2
13 -5z m-283 -19 c0 -2 -11 -4 -25 -4 -14 0 -25 4 -25 9 0 4 11 6 25 3 14 -2
25 -6 25 -8z m143 9 c-7 -2 -21 -2 -30 0 -10 3 -4 5 12 5 17 0 24 -2 18 -5z
m-526 -19 c-3 -3 -12 -4 -19 -1 -8 3 -5 6 6 6 11 1 17 -2 13 -5z m-50 -10 c-3
-3 -12 -4 -19 -1 -8 3 -5 6 6 6 11 1 17 -2 13 -5z m-209 -11 c-10 -2 -26 -2
-35 0 -10 3 -2 5 17 5 19 0 27 -2 18 -5z m120 0 c-10 -2 -26 -2 -35 0 -10 3
-2 5 17 5 19 0 27 -2 18 -5z m-1387 -39 c-5 -16 -10 -21 -10 -12 -1 18 10 51
15 45 2 -1 -1 -16 -5 -33z m-6 -43 c3 -5 1 -12 -5 -16 -5 -3 -10 1 -10 9 0 18
6 21 15 7z m-9 -46 c-3 -20 -16 -31 -16 -13 0 13 8 28 16 28 1 0 1 -7 0 -15z
m-19 -97 c-3 -8 -6 -5 -6 6 -1 11 2 17 5 13 3 -3 4 -12 1 -19z m-10 -55 c-3
-10 -5 -4 -5 12 0 17 2 24 5 18 2 -7 2 -21 0 -30z"/>
<path d="M2179 4598 c-16 -24 -17 -28 -3 -13 10 11 25 26 33 33 9 7 10 12 4
12 -7 0 -22 -15 -34 -32z"/>
</g>
</svg>
