<?xml version="1.0" standalone="no"?>
<!DOCTYPE svg PUBLIC "-//W3C//DTD SVG 20010904//EN"
 "http://www.w3.org/TR/2001/REC-SVG-20010904/DTD/svg10.dtd">
<svg version="1.0" xmlns="http://www.w3.org/2000/svg"
 width="398.000000pt" height="398.000000pt" viewBox="0 0 398.000000 398.000000"
 preserveAspectRatio="xMidYMid meet">
<metadata>
Created by potrace 1.14, written by Peter Selinger 2001-2017
</metadata>
<g transform="translate(0.000000,398.000000) scale(0.100000,-0.100000)"
fill="#000000" stroke="none">
<path d="M1765 3274 c-27 -8 -63 -16 -80 -19 -16 -4 -64 -14 -105 -25 -180
-45 -863 -191 -965 -206 -16 -3 -55 -10 -85 -17 -59 -13 -58 -12 -75 -122 -4
-22 -10 -43 -13 -47 -4 -4 -45 -15 -92 -25 -93 -20 -86 -12 -104 -119 -3 -17
-8 -37 -10 -45 -3 -8 -7 -31 -10 -51 -3 -21 -10 -57 -15 -80 -6 -24 -12 -55
-15 -70 -5 -32 -35 -185 -40 -210 -4 -15 3 -17 60 -12 41 4 64 2 64 -5 0 -6
-9 -48 -20 -95 -11 -46 -22 -98 -25 -115 -3 -17 -12 -59 -19 -93 -8 -35 -17
-81 -21 -103 -3 -22 -7 -47 -10 -55 -2 -8 -6 -26 -9 -40 -4 -26 -23 -129 -30
-165 -2 -11 -7 -40 -11 -65 -4 -25 -9 -54 -11 -65 -2 -11 -6 -33 -9 -50 -3
-16 -8 -42 -11 -57 -3 -15 -7 -40 -10 -57 -2 -17 -6 -43 -8 -58 -3 -16 -7 -46
-11 -68 -3 -22 -12 -78 -20 -125 -8 -47 -17 -107 -20 -135 -4 -27 -8 -57 -10
-65 -2 -8 -7 -41 -11 -74 -6 -57 -6 -58 17 -51 23 8 207 52 329 80 191 44 174
36 184 88 l9 46 109 26 c60 14 115 25 122 25 9 0 16 20 21 63 4 34 8 69 10 77
4 22 14 85 21 127 3 21 12 74 20 118 9 44 17 89 18 100 8 56 39 191 45 197 7
8 83 24 158 33 102 12 111 18 104 58 -1 5 3 6 9 2 5 -3 10 -16 10 -28 0 -12
11 -47 24 -78 l23 -56 -31 -24 c-175 -138 -272 -379 -220 -545 29 -94 119
-169 227 -190 107 -21 340 0 511 47 158 44 236 71 236 83 0 12 147 66 179 66
14 0 31 33 31 60 0 13 5 20 13 16 114 -47 253 -52 382 -12 63 20 71 20 54 0
-14 -17 -32 -17 306 2 94 5 148 9 177 13 3 1 12 17 18 36 17 51 17 51 176 56
l80 3 124 321 c67 176 179 463 247 638 68 176 122 321 120 323 -2 3 -26 0 -53
-7 -27 -6 -60 -13 -74 -15 -14 -3 -33 -7 -44 -10 -35 -11 -6 14 130 111 l136
97 -6 64 c-14 142 -88 303 -172 372 -86 72 -188 104 -329 104 -171 0 -304 -48
-508 -184 -53 -34 -136 -88 -184 -118 -94 -59 -293 -247 -351 -332 l-32 -47
-118 0 c-314 -2 -558 -61 -690 -168 -24 -20 -45 -33 -47 -31 -2 2 5 42 15 88
21 92 24 124 13 117 -5 -3 -32 -8 -62 -11 -30 -4 -66 -9 -79 -13 -24 -6 -25
-4 -18 28 5 19 8 39 9 46 0 7 48 21 120 34 100 19 120 25 127 43 7 17 67 262
74 300 1 6 5 20 9 31 3 11 8 31 11 45 6 32 9 42 43 178 16 61 26 112 23 111
-3 0 -27 -7 -55 -15z m1363 -887 c22 -42 32 -79 37 -132 5 -53 5 -55 -22 -61
-99 -22 -101 -23 -114 -62 -37 -115 -133 -335 -161 -369 -5 -6 -16 -9 -25 -6
-12 5 -14 18 -10 67 7 84 14 122 26 145 6 11 11 28 11 39 0 10 11 40 25 66 14
26 25 53 25 60 0 7 19 42 42 77 22 35 51 83 64 106 30 58 67 101 80 96 6 -2
16 -14 22 -26z m-1198 -445 c0 -4 -4 -13 -8 -19 -8 -12 -21 -12 -87 4 -29 6
-29 7 -6 12 38 9 101 11 101 3z m-298 -577 c-2 -14 -11 -25 -18 -25 -12 0 -11
5 2 25 9 14 17 25 19 25 1 0 0 -11 -3 -25z"/>
</g>
</svg>
