<?xml version="1.0" encoding="UTF-8" standalone="no"?>
<!-- Uploaded to: SVG Repo, www.svgrepo.com, Generator: SVG Repo Mixer Tools -->

<svg
   fill="#000000"
   height="800px"
   width="800px"
   version="1.1"
   id="Icons"
   viewBox="0 0 32 32"
   xml:space="preserve"
   sodipodi:docname="linkedin-logo.svg"
   inkscape:version="1.3.2 (091e20e, 2023-11-25, custom)"
   xmlns:inkscape="http://www.inkscape.org/namespaces/inkscape"
   xmlns:sodipodi="http://sodipodi.sourceforge.net/DTD/sodipodi-0.dtd"
   xmlns="http://www.w3.org/2000/svg"
   xmlns:svg="http://www.w3.org/2000/svg"><defs
   id="defs1" /><sodipodi:namedview
   id="namedview1"
   pagecolor="#ffffff"
   bordercolor="#000000"
   borderopacity="0.25"
   inkscape:showpageshadow="2"
   inkscape:pageopacity="0.0"
   inkscape:pagecheckerboard="0"
   inkscape:deskcolor="#d1d1d1"
   inkscape:zoom="0.97125"
   inkscape:cx="400"
   inkscape:cy="400"
   inkscape:window-width="1920"
   inkscape:window-height="991"
   inkscape:window-x="-9"
   inkscape:window-y="-9"
   inkscape:window-maximized="1"
   inkscape:current-layer="Icons" />
<path
   d="M23,0H9C4,0,0,4,0,9v14c0,5,4,9,9,9h14c5,0,9-4,9-9V9C32,4,28,0,23,0z M12,25c0,0.6-0.4,1-1,1H7c-0.6,0-1-0.4-1-1V13  c0-0.6,0.4-1,1-1h4c0.6,0,1,0.4,1,1V25z M9,11c-1.7,0-3-1.3-3-3s1.3-3,3-3s3,1.3,3,3S10.7,11,9,11z M26,25c0,0.6-0.4,1-1,1h-3  c-0.6,0-1-0.4-1-1v-3.5v-1v-2c0-0.8-0.7-1.5-1.5-1.5S18,17.7,18,18.5v2v1V25c0,0.6-0.4,1-1,1h-3c-0.6,0-1-0.4-1-1V13  c0-0.6,0.4-1,1-1h4c0.3,0,0.5,0.1,0.7,0.3c0.6-0.2,1.2-0.3,1.8-0.3c3,0,5.5,2.5,5.5,5.5V25z"
   id="path1"
   style="fill:#d6d3d1;fill-opacity:1" />
</svg>
