<?xml version="1.0" encoding="UTF-8" standalone="no"?>
<!-- Created with Inkscape (http://www.inkscape.org/) -->

<svg
   width="500.01495mm"
   height="105.53734mm"
   viewBox="0 0 500.01495 105.53734"
   version="1.1"
   id="svg1"
   inkscape:version="1.3.2 (091e20e, 2023-11-25, custom)"
   sodipodi:docname="mountain1.svg"
   xmlns:inkscape="http://www.inkscape.org/namespaces/inkscape"
   xmlns:sodipodi="http://sodipodi.sourceforge.net/DTD/sodipodi-0.dtd"
   xmlns="http://www.w3.org/2000/svg"
   xmlns:svg="http://www.w3.org/2000/svg">
  <sodipodi:namedview
     id="namedview1"
     pagecolor="#ffffff"
     bordercolor="#000000"
     borderopacity="0.25"
     inkscape:showpageshadow="2"
     inkscape:pageopacity="0.0"
     inkscape:pagecheckerboard="0"
     inkscape:deskcolor="#d1d1d1"
     inkscape:document-units="mm"
     inkscape:zoom="0.69219276"
     inkscape:cx="1123.242"
     inkscape:cy="431.23826"
     inkscape:window-width="1920"
     inkscape:window-height="991"
     inkscape:window-x="-9"
     inkscape:window-y="-9"
     inkscape:window-maximized="1"
     inkscape:current-layer="layer1" />
  <defs
     id="defs1" />
  <g
     inkscape:label="Layer 1"
     inkscape:groupmode="layer"
     id="layer1"
     transform="translate(191.82292,-34.39583)">
    <path
       fill-rule="nonzero"
       fill="rgb(0%, 0%, 0%)"
       fill-opacity="1"
       d="m 77.594237,34.413002 c -4.204414,0.374147 -10.098616,6.674538 -11.88249,7.690485 -5.400199,3.077845 -11.90109,9.974579 -18.062972,11.438069 -6.934993,1.646396 -15.38306,-1.84486 -21.674137,1.14308 -2.747116,1.304316 -2.815325,7.24916 -4.8183,9.14982 -1.108975,1.053174 -4.479317,3.110918 -6.022393,4.57544 -1.835547,1.745615 -15.98556946,15.600071 -16.8589061,16.013483 -4.0855371,1.940983 -9.1911749,-3.0117 -12.0406049,-5.718519 -1.156521,-1.09863 -5.705078,0.721413 -7.226433,0 -5.010546,-2.380218 1.288812,0.07855 -1.204065,-2.288223 -4.682914,-4.448307 -16.139584,-20.053564 -25.288372,-17.156562 -3.106791,0.982874 -8.025368,2.095976 -10.837598,3.431302 -2.225172,1.05627 -7.310147,8.086328 -9.633506,10.293958 l -8.429466,8.006742 c -1.656741,1.571995 -4.365625,1.859306 -6.022366,3.431302 -1.365303,1.296061 -1.616446,3.627702 -3.611166,4.575439 -8.453225,4.014232 -17.184472,6.30555 -25.288372,11.438072 -1.83451,1.16065 -3.79717,3.60495 -4.8183,4.57541 -1.21751,1.15549 -17.20826,8.66201 -19.26704,9.14985 -3.38894,0.8051 -6.57738,2.46496 -9.63353,3.43233 -2.52905,0.79997 -5.90042,-0.80097 -8.42947,0 -5.47147,1.7322 -10.512,4.09072 -15.65587,5.71852 -1.07693,0.34107 -1.39112,1.80557 -2.4071,2.28822 -2.67787,1.27125 -5.75262,2.15906 -8.4305,3.43133 -2.20038,1.04593 -2.36471,4.53409 -3.6132,5.71852 -1.66709,1.58438 -5.50354,3.97288 -8.261,5.1821 h 500.01494 c -1.5875,-1.24539 -2.85252,-2.90732 -4.04315,-4.03799 -1.418,-1.3467 -4.38319,-0.36586 -6.02133,-1.14411 -2.68616,-1.27643 -4.6912,-3.31248 -6.01927,-4.57544 -1.37046,-1.30019 -8.89249,0.46302 -10.83966,0 -5.79499,-1.37562 -11.34814,-5.11805 -16.85994,-6.86263 -5.30511,-1.6795 -8.30752,-8.83563 -14.44874,-10.29396 -4.96094,-1.17821 -26.32088,-10.29393 -27.6996,-10.29393 -1.95752,0 -0.30387,2.14252 -2.4071,1.14308 -6.51639,-3.09541 -10.01694,-10.585397 -15.65587,-14.869372 -5.73093,-4.35528 -13.7046,-9.58805 -18.063,-13.72526 -6.32105,-6.003766 -15.7086,0.05167 -20.4711,4.574407 -2.00194,1.902725 -3.82302,6.440938 -6.02134,8.006742 -2.64067,1.88206 -21.65863,10.302213 -24.08533,9.150852 -1.65883,-0.78859 -1.61851,-2.683033 -2.4071,-3.431301 -1.97922,-1.878965 -8.22585,-4.189942 -9.63351,-6.862631 -1.53998,-2.927984 -3.39722,-6.659033 -6.02239,-9.150879 -3.6163,-3.435455 -8.94001,-6.4244 -13.24467,-9.150852 -2.374,-1.501722 -3.70726,-4.753213 -4.818303,-6.86263 -1.730137,-3.288692 -6.100921,-3.91295 -8.429466,-6.86263 C 86.593166,49.102536 84.272876,39.141397 80.16358,35.239825 79.44423,34.55667 78.565734,34.327224 77.594237,34.413002"
       id="path6"
       style="fill:#292524;fill-opacity:1;stroke-width:0.264583;opacity:1" />
  </g>
</svg>
