<?xml version="1.0" encoding="UTF-8" standalone="no"?>
<svg
   viewBox="176.025 154.359 122.46986 133.03456"
   width="1839.556"
   height="1998.2433"
   preserveAspectRatio="none"
   version="1.1"
   id="svg40"
   sodipodi:docname="apasas-health-logo.svg"
   inkscape:version="1.3.2 (091e20e, 2023-11-25, custom)"
   xmlns:inkscape="http://www.inkscape.org/namespaces/inkscape"
   xmlns:sodipodi="http://sodipodi.sourceforge.net/DTD/sodipodi-0.dtd"
   xmlns="http://www.w3.org/2000/svg"
   xmlns:svg="http://www.w3.org/2000/svg">
  <sodipodi:namedview
     id="namedview40"
     pagecolor="#ffffff"
     bordercolor="#000000"
     borderopacity="0.25"
     inkscape:showpageshadow="2"
     inkscape:pageopacity="0.0"
     inkscape:pagecheckerboard="0"
     inkscape:deskcolor="#d1d1d1"
     inkscape:zoom="0.053873104"
     inkscape:cx="-1382.8793"
     inkscape:cy="-2626.5426"
     inkscape:window-width="1920"
     inkscape:window-height="991"
     inkscape:window-x="-9"
     inkscape:window-y="-9"
     inkscape:window-maximized="1"
     inkscape:current-layer="svg40" />
  <defs
     id="defs1" />
  <style
     id="style1">.aIptOCySncolors-0 {fill:#63987C;fill-opacity:1;}.aRnwiMLHascolor {fill:#F5F5F5;fill-opacity:1;}.aRnwiMLHasstrokeColor-str {stroke:#F5F5F5;stroke-opacity:1;}.atBXipXk0bfillColor {fill:#08376B;fill-opacity:1;}.companyName {fill:#08376B;fill-opacity:1;}.icon2 {fill:#9AEBA6;fill-opacity:1;}.icon3 {fill:#2F90B0;fill-opacity:1;}.icon3-str {stroke:#2F90B0;stroke-opacity:1;}.shapeStroke-str {stroke:#08376B;stroke-opacity:1;}</style>
  <g
     opacity="1"
     id="g35"
     style="display:inline"
     transform="translate(-1.9999011,-2.0002999)">
    <svg
       width="122.4698"
       height="133.03461"
       x="178.0249"
       y="156.3593"
       version="1.1"
       preserveAspectRatio="none"
       viewBox="0.63100004 0.52898967 3.8139997 4.1430101"
       id="svg34"
       style="display:inline">
      <g
         class="aIptOCySncolors-0"
         id="g34">
        <g
           id="g33">
          <path
             d="m 2.404,0.685 c 0,0.068 -0.071,0.14 -0.14,0.14 -0.085,0 -0.156,-0.072 -0.156,-0.14 0,-0.084 0.071,-0.156 0.156,-0.156 0.069,-0.001 0.14,0.071 0.14,0.156 z"
             id="path1" />
          <path
             d="m 2.952,0.685 c 0,0.068 -0.069,0.14 -0.141,0.14 -0.084,0 -0.153,-0.072 -0.153,-0.14 0,-0.084 0.068,-0.156 0.153,-0.156 C 2.883,0.528 2.952,0.6 2.952,0.685 Z"
             id="path2" />
          <path
             d="m 3.572,0.894 c 0,0.085 -0.068,0.141 -0.141,0.141 -0.086,0 -0.154,-0.056 -0.154,-0.141 0,-0.084 0.068,-0.153 0.154,-0.153 0.073,0 0.141,0.068 0.141,0.153 z"
             id="path3" />
          <path
             d="m 3.25,1.895 c 0,0.084 -0.072,0.153 -0.158,0.153 -0.067,0 -0.14,-0.069 -0.14,-0.153 0,-0.072 0.072,-0.141 0.14,-0.141 0.086,0 0.158,0.069 0.158,0.141 z"
             id="path4" />
          <path
             d="m 3.572,2.583 c 0,0.084 -0.068,0.156 -0.141,0.156 -0.086,0 -0.154,-0.072 -0.154,-0.156 0,-0.085 0.068,-0.141 0.154,-0.141 0.073,0 0.141,0.057 0.141,0.141 z"
             id="path5" />
          <g
             id="g6">
            <path
               d="M 2.896,4.559 C 2.87,4.559 2.849,4.539 2.849,4.513 V 2.237 L 2.232,1.618 C 2.224,1.609 2.218,1.597 2.218,1.585 v -0.9 c 0,-0.026 0.021,-0.047 0.047,-0.047 0.025,0 0.046,0.021 0.046,0.047 v 0.881 l 0.618,0.619 c 0.008,0.008 0.014,0.021 0.014,0.033 v 2.295 c 0,0.026 -0.021,0.046 -0.047,0.046 z"
               id="path6" />
          </g>
          <g
             id="g7">
            <rect
               x="1.928"
               y="1.193"
               transform="matrix(0.7065,0.7078,-0.7078,0.7065,1.4986,-1.1337)"
               width="0.377"
               height="0.093000002"
               id="rect6" />
          </g>
          <g
             id="g8">
            <polygon
               points="3.479,2.055 3.463,2.069 2.929,2.604 2.863,2.538 3.385,2.016 3.385,0.922 3.479,0.922 "
               id="polygon7" />
          </g>
          <path
             d="m 3.25,1.106 c 0,0.085 -0.072,0.142 -0.158,0.142 -0.067,0 -0.14,-0.057 -0.14,-0.142 0,-0.083 0.072,-0.14 0.14,-0.14 0.086,0 0.158,0.056 0.158,0.14 z"
             id="path8" />
          <path
             d="m 3.896,2.007 c 0,0.069 -0.07,0.141 -0.156,0.141 -0.068,0 -0.14,-0.072 -0.14,-0.141 0,-0.084 0.072,-0.156 0.141,-0.156 0.085,0 0.155,0.072 0.155,0.156 z"
             id="path9" />
          <g
             id="g9">
            <polygon
               points="3.787,2.036 3.787,2.326 3.971,2.51 3.904,2.576 3.693,2.365 3.693,2.036 "
               id="polygon9" />
          </g>
          <path
             d="m 3.756,1.316 c 0,0.084 0.057,0.141 0.141,0.141 0.086,0 0.154,-0.056 0.154,-0.141 C 4.051,1.231 3.983,1.162 3.897,1.162 3.812,1.163 3.756,1.231 3.756,1.316 Z"
             id="path10" />
          <g
             id="g10">
            <rect
               x="3.5969999"
               y="1.265"
               transform="matrix(0.6912,0.7226,-0.7226,0.6912,2.2648,-2.146)"
               width="0.093000002"
               height="0.625"
               id="rect10" />
          </g>
          <g
             id="g11">
            <rect
               x="2.927"
               y="1.0319999"
               transform="matrix(0.7251,0.6886,-0.6886,0.7251,1.6781,-1.7041)"
               width="0.093999997"
               height="0.43700001"
               id="rect11" />
          </g>
          <g
             id="g12">
            <rect
               x="2.3510001"
               y="1.092"
               transform="matrix(0.7277,0.6859,-0.6859,0.7277,1.551,-1.2875)"
               width="0.093000002"
               height="0.43700001"
               id="rect12" />
          </g>
          <g
             id="g13">
            <rect
               x="1.8200001"
               y="1.781"
               transform="matrix(0.7251,0.6886,-0.6886,0.7251,1.8903,-0.7361)"
               width="0.093999997"
               height="0.43700001"
               id="rect13" />
          </g>
          <g
             id="g14">
            <rect
               x="3.1229999"
               y="1.774"
               transform="matrix(-0.6913,0.7225,-0.7225,-0.6913,6.8001,1.0785)"
               width="0.093999997"
               height="0.435"
               id="rect14" />
          </g>
          <path
             d="m 4.15,2.133 c 0,0.084 0.068,0.156 0.141,0.156 0.086,0 0.154,-0.072 0.154,-0.156 0,-0.084 -0.068,-0.141 -0.154,-0.141 -0.072,0 -0.141,0.056 -0.141,0.141 z"
             id="path14" />
          <g
             id="g15">
            <path
               d="M 3.262,4.403 C 3.237,4.403 3.215,4.381 3.215,4.355 V 3.19 c 0,-0.013 0.006,-0.024 0.016,-0.033 l 1,-1.014 c 0.018,-0.019 0.047,-0.019 0.064,0 0.02,0.018 0.02,0.048 0,0.066 l -0.986,1 v 1.146 c 0,0.026 -0.02,0.048 -0.047,0.048 z"
               id="path15" />
          </g>
          <g
             id="g16">
            <rect
               x="3.1170001"
               y="2.4719999"
               transform="matrix(0.7045,0.7097,-0.7097,0.7045,2.9579,-1.4031)"
               width="0.093999997"
               height="0.75599998"
               id="rect15" />
          </g>
          <path
             d="m 4.135,2.936 c 0,0.069 -0.057,0.141 -0.141,0.141 -0.084,0 -0.154,-0.072 -0.154,-0.141 0,-0.084 0.07,-0.155 0.154,-0.155 0.084,0 0.141,0.071 0.141,0.155 z"
             id="path16" />
          <g
             id="g17">
            <rect
               x="3.575"
               y="2.78"
               transform="matrix(0.7123,0.7018,-0.7018,0.7123,3.3593,-1.5923)"
               width="0.093000002"
               height="1.043"
               id="rect16" />
          </g>
          <path
             d="m 1.504,0.894 c 0,0.085 0.069,0.141 0.141,0.141 0.084,0 0.153,-0.056 0.153,-0.141 0,-0.084 -0.068,-0.153 -0.153,-0.153 -0.072,0 -0.141,0.068 -0.141,0.153 z"
             id="path17" />
          <path
             d="m 1.827,1.895 c 0,0.084 0.072,0.153 0.14,0.153 0.085,0 0.157,-0.069 0.157,-0.153 0,-0.072 -0.072,-0.141 -0.157,-0.141 -0.069,0 -0.14,0.069 -0.14,0.141 z"
             id="path18" />
          <path
             d="m 1.504,2.583 c 0,0.084 0.056,0.156 0.141,0.156 0.085,0 0.153,-0.072 0.153,-0.156 0,-0.085 -0.068,-0.141 -0.153,-0.141 -0.085,0 -0.141,0.057 -0.141,0.141 z"
             id="path19" />
          <g
             id="g20">
            <path
               d="M 2.179,4.559 C 2.154,4.559 2.133,4.539 2.133,4.513 V 2.217 c 0,-0.012 0.005,-0.024 0.014,-0.033 L 2.765,1.565 v -0.88 c 0,-0.026 0.022,-0.047 0.047,-0.047 0.026,0 0.047,0.021 0.047,0.047 v 0.901 c 0,0.012 -0.005,0.024 -0.014,0.033 L 2.226,2.237 v 2.276 c 0,0.026 -0.021,0.046 -0.047,0.046 z"
               id="path20" />
          </g>
          <g
             id="g21">
            <polygon
               points="1.691,0.922 1.691,2.016 2.212,2.538 2.146,2.604 1.598,2.055 1.598,0.922 "
               id="polygon20" />
          </g>
          <path
             d="m 1.827,1.106 c 0,0.085 0.072,0.142 0.14,0.142 0.085,0 0.157,-0.057 0.157,-0.142 0,-0.083 -0.072,-0.14 -0.157,-0.14 -0.069,0 -0.14,0.056 -0.14,0.14 z"
             id="path21" />
          <path
             d="m 1.179,2.007 c 0,0.069 0.071,0.141 0.14,0.141 0.084,0 0.156,-0.072 0.156,-0.141 0,-0.084 -0.072,-0.156 -0.156,-0.156 -0.069,0 -0.14,0.072 -0.14,0.156 z"
             id="path22" />
          <g
             id="g22">
            <polygon
               points="1.273,2.036 1.366,2.036 1.366,2.365 1.156,2.576 1.09,2.51 1.273,2.326 "
               id="polygon22" />
          </g>
          <path
             d="m 2.377,1.191 c 0,0.084 0.068,0.141 0.153,0.141 0.083,0 0.14,-0.057 0.14,-0.141 0,-0.085 -0.057,-0.156 -0.14,-0.156 -0.085,0 -0.153,0.071 -0.153,0.156 z"
             id="path23" />
          <path
             d="m 2.377,2.289 c 0,0.068 0.068,0.141 0.153,0.141 0.083,0 0.14,-0.073 0.14,-0.141 0,-0.084 -0.057,-0.156 -0.14,-0.156 -0.085,0 -0.153,0.072 -0.153,0.156 z"
             id="path24" />
          <path
             d="m 2.377,3.443 c 0,0.084 0.068,0.153 0.153,0.153 0.083,0 0.14,-0.069 0.14,-0.153 0,-0.084 -0.056,-0.14 -0.14,-0.14 -0.085,0 -0.153,0.056 -0.153,0.14 z"
             id="path25" />
          <path
             d="m 1.319,1.316 c 0,0.084 -0.069,0.141 -0.14,0.141 -0.085,0 -0.154,-0.056 -0.154,-0.141 0,-0.085 0.069,-0.154 0.154,-0.154 0.071,0.001 0.14,0.069 0.14,0.154 z"
             id="path26" />
          <g
             id="g26">
            <rect
               x="1.118"
               y="1.531"
               transform="matrix(0.7095,0.7047,-0.7047,0.7095,1.5261,-0.5466)"
               width="0.61699998"
               height="0.093000002"
               id="rect26" />
          </g>
          <path
             d="m 0.925,2.133 c 0,0.084 -0.068,0.156 -0.153,0.156 -0.072,0 -0.141,-0.072 -0.141,-0.156 0,-0.084 0.069,-0.141 0.141,-0.141 0.084,0 0.153,0.056 0.153,0.141 z"
             id="path27" />
          <g
             id="g28">
            <path
               d="M 1.814,4.403 C 1.788,4.403 1.768,4.381 1.768,4.355 V 3.209 l -0.988,-1 C 0.762,2.191 0.762,2.161 0.78,2.143 0.798,2.125 0.827,2.125 0.846,2.143 L 1.847,3.157 C 1.855,3.166 1.861,3.178 1.861,3.19 v 1.165 c 0,0.026 -0.022,0.048 -0.047,0.048 z"
               id="path28" />
          </g>
          <g
             id="g29">
            <rect
               x="1.535"
               y="2.803"
               transform="matrix(0.7078,0.7065,-0.7065,0.7078,2.5725,-0.518)"
               width="0.755"
               height="0.093999997"
               id="rect28" />
          </g>
          <path
             d="m 0.941,2.936 c 0,0.069 0.057,0.141 0.141,0.141 0.085,0 0.141,-0.072 0.141,-0.141 0,-0.084 -0.056,-0.155 -0.141,-0.155 -0.084,0 -0.141,0.071 -0.141,0.155 z"
             id="path29" />
          <g
             id="g30">
            <rect
               x="0.93099999"
               y="3.256"
               transform="matrix(0.7076,0.7066,-0.7066,0.7076,2.7567,-0.0576)"
               width="1.034"
               height="0.093000002"
               id="rect29" />
          </g>
          <g
             id="g31">
            <path
               d="M 2.53,4.672 C 2.504,4.672 2.483,4.651 2.483,4.625 V 2.261 c 0,-0.025 0.021,-0.046 0.047,-0.046 0.026,0 0.047,0.021 0.047,0.046 v 2.364 c 0,0.025 -0.021,0.047 -0.047,0.047 z"
               id="path30" />
          </g>
          <g
             id="g32">
            <path
               d="M 2.53,4.672 C 2.504,4.672 2.483,4.651 2.483,4.625 V 2.261 c 0,-0.025 0.021,-0.046 0.047,-0.046 0.026,0 0.047,0.021 0.047,0.046 v 2.364 c 0,0.025 -0.021,0.047 -0.047,0.047 z"
               id="path31" />
          </g>
        </g>
      </g>
    </svg>
  </g>
</svg>
