<?xml version="1.0" encoding="UTF-8" standalone="no"?>
<!-- Created with Inkscape (http://www.inkscape.org/) -->

<svg
   width="2000"
   height="1000"
   viewBox="0 0 2000 1000"
   version="1.1"
   id="svg1"
   xml:space="preserve"
   inkscape:version="1.3.2 (091e20e, 2023-11-25, custom)"
   sodipodi:docname="clouds1.svg"
   inkscape:export-filename="..\..\Documents\functions-and-glory\repos\functionsandglory.github.io\public\assets\trees1.svg"
   inkscape:export-xdpi="96"
   inkscape:export-ydpi="96"
   xmlns:inkscape="http://www.inkscape.org/namespaces/inkscape"
   xmlns:sodipodi="http://sodipodi.sourceforge.net/DTD/sodipodi-0.dtd"
   xmlns:xlink="http://www.w3.org/1999/xlink"
   xmlns="http://www.w3.org/2000/svg"
   xmlns:svg="http://www.w3.org/2000/svg"><sodipodi:namedview
     id="namedview1"
     pagecolor="#060606"
     bordercolor="#000000"
     borderopacity="0.25"
     inkscape:showpageshadow="2"
     inkscape:pageopacity="0.0"
     inkscape:pagecheckerboard="0"
     inkscape:deskcolor="#d1d1d1"
     inkscape:document-units="px"
     inkscape:zoom="0.29983559"
     inkscape:cx="68.370803"
     inkscape:cy="858.80399"
     inkscape:window-width="1920"
     inkscape:window-height="991"
     inkscape:window-x="-9"
     inkscape:window-y="-9"
     inkscape:window-maximized="1"
     inkscape:current-layer="svg1" /><defs
     id="defs1"><color-profile
       name="_5B2D"
       xlink:href="../../../../../../../../WINDOWS/system32/spool/drivers/color/Dell_XPS_13_9305_FHD_AUO5B2D.icm"
       id="color-profile1" /></defs><path
     d="m 180.86063,88.552812 a 37.059012,34.217351 0 0 1 -67.94158,16.595408 25.261894,23.324827 0 0 1 -6.17652,0.74138 26.682489,24.636492 0 0 1 -22.29717,-11.405778 17.479501,16.139184 0 0 1 -10.31473,3.13659 17.10891,15.79701 0 0 1 -17.17071,-15.85404 3.026486,2.7944171 0 0 1 0,-0.68434 22.297172,20.587439 0 0 1 -5.80591,0.68434 23.408947,21.613964 0 1 1 0,-43.227914 22.173642,20.473381 0 0 1 5.74424,0.684347 18.529506,17.108676 0 0 1 18.52947,-14.827513 17.973621,16.595416 0 0 1 7.35004,1.368695 17.232441,15.911068 0 0 1 26.12656,-4.505291 26.250134,24.23729 0 0 1 34.95905,6.330209 16.553026,15.28375 0 0 1 25.94131,5.30369 24.706009,22.811567 0 0 1 4.26178,-0.342183 30.882511,28.514459 0 0 1 6.91763,56.0024 z"
     id="path1-7"
     style="display:inline;fill:#fafaf9;fill-opacity:1;stroke-width:5.93497" /><path
     d="m 1862.5682,201.97709 a 22.35018,16.187728 0 0 1 -32.2202,13.88364 63.95088,46.318169 0 0 1 -108.0803,1.77237 24.470999,17.72379 0 0 1 -8.157,1.06344 25.205129,18.255503 0 0 1 -25.2051,-18.25551 v 0 h -3.2628 a 34.096259,24.695147 0 0 1 0,-49.33121 33.443699,24.222512 0 0 1 9.9515,1.1225 23.900009,17.310233 0 0 1 39.2352,-11.81585 41.274419,29.894125 0 0 1 67.7031,2.12684 22.67646,16.424044 0 0 1 13.9485,-3.42659 22.92117,16.601283 0 0 1 22.7581,16.54221 23.655299,17.132996 0 0 1 -0.571,3.54475 31.893869,23.100005 0 1 1 23.6553,42.77341 z"
     id="path1-16"
     style="display:inline;fill:#fafaf9;fill-opacity:1;stroke-width:6.94197" /><path
     d="m 1364.9645,119.17585 a 40.648117,35.312481 0 0 1 -39.6181,26.98342 38.746451,33.660434 0 0 1 -11.8062,-1.51438 42.232838,36.689186 0 0 1 -65.2113,-0.61952 30.505897,26.501569 0 0 1 -42.4705,-24.29884 32.328327,28.08478 0 0 1 0.4754,-4.88731 38.429506,33.385094 0 0 1 4.041,-66.632504 38.825686,33.72927 0 0 1 6.1013,0.481844 32.407563,28.153615 0 0 1 51.8996,-15.763272 39.618047,34.417623 0 0 1 55.4653,4.336623 22.186106,19.273869 0 0 1 23.7707,6.195177 50.711101,44.054556 0 0 1 6.7352,-0.481853 44.451449,38.616572 0 0 1 10.3006,76.200615 z"
     id="path1-4"
     style="display:inline;fill:#fafaf9;fill-opacity:1;stroke-width:7.38526" /><path
     d="m 211.68088,437.42008 a 53.999472,38.220583 0 0 1 54.09855,-38.36085 42.605088,30.155689 0 0 1 6.14306,0 49.540799,35.064754 0 0 1 75.40111,-21.88041 55.683859,39.412785 0 0 1 104.53108,19.21549 11.988874,8.4856705 0 0 1 0,1.33246 55.782941,39.482914 0 0 1 -12.28614,77.98402 H 265.18495 a 53.999472,38.220583 0 0 1 -53.50407,-38.29071 z"
     id="path1-42"
     style="display:inline;fill:#fafaf9;fill-opacity:1;stroke-width:8.33577" /><path
     d="m 801.51133,138.39101 a 45.471173,35.908265 0 0 0 -41.59053,-35.77502 26.320975,20.785489 0 0 0 -26.32099,-19.986047 26.658424,21.051971 0 0 0 -12.14816,2.3317 45.302448,35.775026 0 0 0 -81.15629,13.59052 26.405338,20.85211 0 0 0 -38.21602,18.587017 c 0,0 0,0.59958 0,0.93269 a 38.300394,30.245552 0 0 0 -6.32718,-0.46636 35.938257,28.38019 0 1 0 0,56.76038 h 160.79412 a 45.555535,35.974886 0 0 0 44.96505,-35.97488 z"
     id="path1-9"
     style="display:inline;fill:#fafaf9;fill-opacity:1;stroke-width:7.49681" /><path
     d="m 1418.5068,417.27784 a 38.024498,33.162704 0 0 0 -32.1307,-33.1627 14.44931,12.601828 0 0 0 0,-1.43705 22.814699,19.897623 0 0 0 -40.3693,-12.32547 31.687082,27.635587 0 0 0 -54.4384,15.1443 18.061637,15.752284 0 0 0 -13.3719,-5.08494 18.315133,15.973369 0 0 0 -18.3152,16.02864 17.04765,14.867946 0 0 0 0.7605,4.47696 28.77187,25.093113 0 0 0 5.1333,49.74406 33.398185,29.127908 0 0 0 3.549,0 v 0 h 111.4117 a 38.024498,33.162704 0 0 0 38.0245,-33.1627 z"
     id="path1-19"
     style="display:inline;fill:#fafaf9;fill-opacity:1;stroke-width:5.91841" /></svg>
