<?xml version="1.0" encoding="UTF-8" standalone="no"?>
<!-- Created with Inkscape (http://www.inkscape.org/) -->

<svg
   width="2000"
   height="1000"
   viewBox="0 0 2000 1000"
   version="1.1"
   id="svg1"
   xml:space="preserve"
   inkscape:version="1.3.2 (091e20e, 2023-11-25, custom)"
   sodipodi:docname="clouds1.svg"
   inkscape:export-filename="..\..\Documents\functions-and-glory\repos\functionsandglory.github.io\public\assets\trees1.svg"
   inkscape:export-xdpi="96"
   inkscape:export-ydpi="96"
   xmlns:inkscape="http://www.inkscape.org/namespaces/inkscape"
   xmlns:sodipodi="http://sodipodi.sourceforge.net/DTD/sodipodi-0.dtd"
   xmlns:xlink="http://www.w3.org/1999/xlink"
   xmlns="http://www.w3.org/2000/svg"
   xmlns:svg="http://www.w3.org/2000/svg"><sodipodi:namedview
     id="namedview1"
     pagecolor="#060606"
     bordercolor="#000000"
     borderopacity="0.25"
     inkscape:showpageshadow="2"
     inkscape:pageopacity="0.0"
     inkscape:pagecheckerboard="0"
     inkscape:deskcolor="#d1d1d1"
     inkscape:document-units="px"
     inkscape:zoom="0.29983559"
     inkscape:cx="1322.3914"
     inkscape:cy="295.16176"
     inkscape:window-width="1920"
     inkscape:window-height="991"
     inkscape:window-x="-9"
     inkscape:window-y="-9"
     inkscape:window-maximized="1"
     inkscape:current-layer="svg1" /><defs
     id="defs1"><color-profile
       name="_5B2D"
       xlink:href="../../../../../../../../WINDOWS/system32/spool/drivers/color/Dell_XPS_13_9305_FHD_AUO5B2D.icm"
       id="color-profile1" /></defs><path
     d="m 1610.2277,592.36378 a 48.867834,44.852703 0 0 1 -47.6296,34.27342 46.581621,42.75433 0 0 1 -14.1936,-1.92352 50.773012,46.601346 0 0 1 -78.3981,-0.78689 36.674691,33.661384 0 0 1 -51.0587,-30.86356 38.865646,35.672325 0 0 1 0.5715,-6.20769 46.200584,42.404602 0 0 1 4.8582,-84.63431 46.676878,42.841762 0 0 1 7.3351,0.61201 38.960904,35.759757 0 0 1 62.3945,-20.02196 47.629468,43.716084 0 0 1 66.6813,5.50824 26.672501,24.481007 0 0 1 28.5775,7.86889 60.965719,55.956586 0 0 1 8.0972,-0.61203 53.440263,49.049446 0 0 1 12.3836,96.7874 z"
     id="path1-4"
     style="display:inline;fill:#fafaf9;fill-opacity:1;stroke-width:9.12614" /><path
     d="m 550.59532,129.53067 a 64.919052,48.546474 0 0 1 65.03815,-48.724641 51.220536,38.302722 0 0 1 7.3853,0 59.558762,44.538049 0 0 1 90.6484,-27.791743 66.94405,50.060767 0 0 1 125.6691,24.406863 14.413222,10.778207 0 0 1 0,1.69243 67.063168,50.149844 0 0 1 -14.7706,99.052641 h -209.6469 a 64.919052,48.546474 0 0 1 -64.32345,-48.63555 z"
     id="path1-42"
     style="display:inline;fill:#fafaf9;fill-opacity:1;stroke-width:10.3007" /></svg>
