<?xml version="1.0" encoding="UTF-8" standalone="no"?>
<!-- Created with Inkscape (http://www.inkscape.org/) -->

<svg
   width="2000"
   height="1000"
   viewBox="0 0 2000 1000"
   version="1.1"
   id="svg1"
   xml:space="preserve"
   inkscape:version="1.3.2 (091e20e, 2023-11-25, custom)"
   sodipodi:docname="clouds2.svg"
   inkscape:export-filename="..\..\Documents\functions-and-glory\repos\functionsandglory.github.io\public\assets\trees1.svg"
   inkscape:export-xdpi="96"
   inkscape:export-ydpi="96"
   xmlns:inkscape="http://www.inkscape.org/namespaces/inkscape"
   xmlns:sodipodi="http://sodipodi.sourceforge.net/DTD/sodipodi-0.dtd"
   xmlns="http://www.w3.org/2000/svg"
   xmlns:svg="http://www.w3.org/2000/svg"><sodipodi:namedview
     id="namedview1"
     pagecolor="#1e1e1e"
     bordercolor="#000000"
     borderopacity="0.25"
     inkscape:showpageshadow="2"
     inkscape:pageopacity="0.0"
     inkscape:pagecheckerboard="0"
     inkscape:deskcolor="#d1d1d1"
     inkscape:document-units="px"
     inkscape:zoom="0.29983559"
     inkscape:cx="68.370803"
     inkscape:cy="858.80399"
     inkscape:window-width="1920"
     inkscape:window-height="991"
     inkscape:window-x="-9"
     inkscape:window-y="-9"
     inkscape:window-maximized="1"
     inkscape:current-layer="svg1" /><defs
     id="defs1" /><path
     d="m 346.65942,508.22379 a 81.560303,73.806463 0 0 1 -149.52744,35.79611 55.596943,50.311403 0 0 1 -13.5935,1.59915 58.723419,53.140649 0 0 1 -49.0721,-24.60213 38.469278,34.812046 0 0 1 -22.7009,6.76557 37.653672,34.073982 0 0 1 -37.789502,-34.19699 6.6607581,6.027528 0 0 1 0,-1.47611 49.072116,44.406887 0 0 1 -12.777801,1.47611 51.518933,46.621092 0 1 1 0,-93.24213 48.800248,44.160864 0 0 1 12.641901,1.47612 40.780152,36.903232 0 0 1 40.780302,-31.98281 39.556748,35.796135 0 0 1 16.1759,2.95227 37.925542,34.320005 0 0 1 57.4999,-9.71788 57.771882,52.279576 0 0 1 76.93871,13.65422 36.430271,32.966886 0 0 1 57.09213,11.43998 54.373538,49.204307 0 0 1 9.3794,-0.73806 67.966922,61.505384 0 0 1 15.2247,120.79658 z"
     id="path1-7-2"
     style="display:inline;fill:#fafafa;fill-opacity:1;stroke-width:12.9311"
     inkscape:transform-center-x="10.005483"
     inkscape:transform-center-y="-66.703222" /></svg>
