<?xml version="1.0" encoding="UTF-8" standalone="no"?>
<!-- Created with Inkscape (http://www.inkscape.org/) -->

<svg
   width="2000"
   height="1000"
   viewBox="0 0 2000 1000"
   version="1.1"
   id="svg1"
   xml:space="preserve"
   inkscape:version="1.3.2 (091e20e, 2023-11-25, custom)"
   sodipodi:docname="clouds1.svg"
   inkscape:export-filename="..\..\Documents\functions-and-glory\repos\functionsandglory.github.io\public\assets\trees1.svg"
   inkscape:export-xdpi="96"
   inkscape:export-ydpi="96"
   xmlns:inkscape="http://www.inkscape.org/namespaces/inkscape"
   xmlns:sodipodi="http://sodipodi.sourceforge.net/DTD/sodipodi-0.dtd"
   xmlns:xlink="http://www.w3.org/1999/xlink"
   xmlns="http://www.w3.org/2000/svg"
   xmlns:svg="http://www.w3.org/2000/svg"><sodipodi:namedview
     id="namedview1"
     pagecolor="#060606"
     bordercolor="#000000"
     borderopacity="0.25"
     inkscape:showpageshadow="2"
     inkscape:pageopacity="0.0"
     inkscape:pagecheckerboard="0"
     inkscape:deskcolor="#d1d1d1"
     inkscape:document-units="px"
     inkscape:zoom="0.29983559"
     inkscape:cx="1322.3914"
     inkscape:cy="295.16176"
     inkscape:window-width="1920"
     inkscape:window-height="991"
     inkscape:window-x="-9"
     inkscape:window-y="-9"
     inkscape:window-maximized="1"
     inkscape:current-layer="svg1" /><defs
     id="defs1"><color-profile
       name="_5B2D"
       xlink:href="../../../../../../../../WINDOWS/system32/spool/drivers/color/Dell_XPS_13_9305_FHD_AUO5B2D.icm"
       id="color-profile1" /></defs><path
     d="m 299.50934,712.42959 a 48.867834,44.852703 0 0 1 -47.62952,34.27342 46.581621,42.75433 0 0 1 -14.19361,-1.92352 50.773012,46.601346 0 0 1 -78.39809,-0.78689 36.674691,33.661384 0 0 1 -51.05874,-30.86356 38.865646,35.672325 0 0 1 0.57153,-6.20769 46.200584,42.404602 0 0 1 4.85816,-84.63431 46.676878,42.841762 0 0 1 7.33508,0.61201 38.960904,35.759757 0 0 1 62.39456,-20.02196 47.629468,43.716084 0 0 1 66.6813,5.50824 26.672501,24.481007 0 0 1 28.57751,7.86889 60.965719,55.956586 0 0 1 8.09717,-0.61203 53.440263,49.049446 0 0 1 12.38355,96.7874 z"
     id="path1-4"
     style="display:inline;fill:#fafaf9;fill-opacity:1;stroke-width:9.12614" /><path
     d="m 177.05727,209.57454 a 64.919052,48.546474 0 0 1 65.03817,-48.72464 51.220536,38.302722 0 0 1 7.38528,0 59.558762,44.538049 0 0 1 90.64844,-27.79174 66.94405,50.060767 0 0 1 125.669,24.40686 14.413222,10.778207 0 0 1 0,1.69243 67.063168,50.149844 0 0 1 -14.77061,99.05264 H 241.38074 a 64.919052,48.546474 0 0 1 -64.32347,-48.63555 z"
     id="path1-42"
     style="display:inline;fill:#fafaf9;fill-opacity:1;stroke-width:10.3007" /><path
     d="m 1800.397,204.94774 a 45.713676,42.122128 0 0 0 -38.6281,-42.12211 17.371199,16.006411 0 0 0 0,-1.82531 27.428206,25.273278 0 0 0 -48.5326,-15.65539 38.094731,35.101774 0 0 0 -65.4469,19.23578 21.713998,20.008011 0 0 0 -16.0759,-6.45871 22.018754,20.288825 0 0 0 -22.0188,20.35902 20.494964,18.884754 0 0 0 0.9143,5.68648 34.590015,31.872412 0 0 0 6.1713,63.1832 40.151847,36.997269 0 0 0 4.2667,0 v 0 h 133.941 a 45.713676,42.122128 0 0 0 45.7137,-42.12213 z"
     id="path1-19"
     style="display:inline;fill:#fafaf9;fill-opacity:1;stroke-width:7.31352" /><path
     d="m 1107.4794,681.84869 a 51.306534,50.498068 0 0 1 -94.0619,24.49155 34.973954,34.422847 0 0 1 -8.5511,1.09413 36.940704,36.358606 0 0 1 -30.86951,-16.83267 24.199581,23.818254 0 0 1 -14.28015,4.62897 23.686515,23.313274 0 0 1 -23.7721,-23.39743 4.1900336,4.124009 0 0 1 0,-1.00995 30.869431,30.383003 0 0 1 -8.038,1.00995 32.408633,31.89795 0 1 1 0,-63.79588 30.69841,30.214675 0 0 1 7.9526,1.00996 25.653267,25.249033 0 0 1 25.6533,-21.88249 24.883669,24.491564 0 0 1 10.17565,2.01993 23.857539,23.4816 0 0 1 36.17111,-6.64894 36.342129,35.769463 0 0 1 48.3992,9.34216 22.916919,22.555803 0 0 1 35.9144,7.82721 34.204357,33.665377 0 0 1 5.9003,-0.505 42.755446,42.081722 0 0 1 9.5772,82.6485 z"
     id="use2"
     style="display:inline;fill:#fafaf9;fill-opacity:1;stroke-width:8.48344" /><path
     d="m 1949.7298,658.31624 a 54.666191,45.609448 0 0 0 -50.0009,-45.4402 31.643509,26.401015 0 0 0 -31.6432,-25.3856 32.049195,26.739492 0 0 0 -14.6048,2.96165 54.463348,45.44021 0 0 0 -97.5674,17.26221 31.744931,26.485635 0 0 0 -45.9441,23.60859 c 0,0 0,0.76158 0,1.18468 a 46.045363,38.416862 0 0 0 -7.6066,-0.59236 43.205565,36.047547 0 1 0 0,72.09508 h 193.3094 a 54.767613,45.694065 0 0 0 54.0576,-45.69405 z"
     id="use3"
     style="display:inline;fill:#fafaf9;fill-opacity:1;stroke-width:9.26399" /></svg>
