<?xml version="1.0" encoding="UTF-8" standalone="no"?>
<!-- Created with Inkscape (http://www.inkscape.org/) -->

<svg
   width="2000"
   height="1000"
   viewBox="0 0 2000 1000"
   version="1.1"
   id="svg1"
   xml:space="preserve"
   inkscape:version="1.3.2 (091e20e, 2023-11-25, custom)"
   sodipodi:docname="clouds1.svg"
   inkscape:export-filename="..\..\Documents\functions-and-glory\repos\functionsandglory.github.io\public\assets\trees1.svg"
   inkscape:export-xdpi="96"
   inkscape:export-ydpi="96"
   xmlns:inkscape="http://www.inkscape.org/namespaces/inkscape"
   xmlns:sodipodi="http://sodipodi.sourceforge.net/DTD/sodipodi-0.dtd"
   xmlns:xlink="http://www.w3.org/1999/xlink"
   xmlns="http://www.w3.org/2000/svg"
   xmlns:svg="http://www.w3.org/2000/svg"><sodipodi:namedview
     id="namedview1"
     pagecolor="#060606"
     bordercolor="#000000"
     borderopacity="0.25"
     inkscape:showpageshadow="2"
     inkscape:pageopacity="0.0"
     inkscape:pagecheckerboard="0"
     inkscape:deskcolor="#d1d1d1"
     inkscape:document-units="px"
     inkscape:zoom="0.29983559"
     inkscape:cx="1322.3914"
     inkscape:cy="858.80399"
     inkscape:window-width="1920"
     inkscape:window-height="991"
     inkscape:window-x="-9"
     inkscape:window-y="-9"
     inkscape:window-maximized="1"
     inkscape:current-layer="svg1" /><defs
     id="defs1"><color-profile
       name="_5B2D"
       xlink:href="../../../../../../../../WINDOWS/system32/spool/drivers/color/Dell_XPS_13_9305_FHD_AUO5B2D.icm"
       id="color-profile1" /></defs><path
     d="m 196.82276,95.906772 a 40.921897,37.761715 0 0 1 -75.02354,18.314428 27.895094,25.740901 0 0 1 -6.82034,0.81817 29.463766,27.188433 0 0 1 -24.621334,-12.58723 19.301495,17.810942 0 0 1 -11.389897,3.46148 18.892275,17.433324 0 0 1 -18.960516,-17.496254 3.3419549,3.0838735 0 0 1 0,-0.755227 24.621341,22.719964 0 0 1 -6.411096,0.755227 25.849003,23.85282 0 1 1 0,-47.705626 24.484935,22.594091 0 0 1 6.342997,0.755234 20.460949,18.880857 0 0 1 20.460909,-16.363402 19.84712,18.314433 0 0 1 8.116179,1.510469 19.028683,17.559197 0 0 1 28.849888,-4.971966 28.986344,26.74788 0 0 1 38.60304,6.985916 18.278448,16.866899 0 0 1 28.64533,5.853066 27.281266,25.174476 0 0 1 4.70601,-0.377627 34.101582,31.468095 0 0 1 7.63871,61.803342 z"
     id="path1-7"
     style="display:inline;fill:#fafaf9;fill-opacity:1;stroke-width:6.55167" /><path
     d="m 1640.0161,94.520329 a 21.431214,15.375287 0 0 1 -30.8954,13.186841 61.321429,43.993521 0 0 1 -103.6364,1.68342 23.464832,16.834256 0 0 1 -7.8216,1.01007 24.168777,17.339283 0 0 1 -24.1687,-17.339298 v 0 h -3.1287 a 32.694332,23.45573 0 0 1 0,-46.855341 32.068604,23.006816 0 0 1 9.5424,1.066163 22.917319,16.441455 0 0 1 37.6219,-11.222828 39.57735,28.393778 0 0 1 64.9194,2.020097 21.744078,15.599743 0 0 1 13.375,-3.254614 21.978727,15.768086 0 0 1 21.8223,15.711978 22.682671,16.273113 0 0 1 -0.5475,3.366843 30.582497,21.940646 0 1 1 22.6827,40.626669 z"
     id="path1-16"
     style="display:inline;fill:#fafaf9;fill-opacity:1;stroke-width:6.62498" /><path
     d="m 229.04743,801.48265 a 38.976799,33.540194 0 0 1 -37.98913,25.62916 37.153324,31.971061 0 0 1 -11.32077,-1.43838 40.496362,34.847804 0 0 1 -62.53002,-0.58843 29.251594,25.17149 0 0 1 -40.724256,-23.07931 30.999092,26.675242 0 0 1 0.455853,-4.64202 36.84941,31.70954 0 0 1 3.874847,-63.2883 37.229301,32.036442 0 0 1 5.850435,0.45765 31.07507,26.740622 0 0 1 49.765661,-14.97213 37.989083,32.690247 0 0 1 53.18475,4.11898 21.273886,18.306539 0 0 1 22.79332,5.88424 48.626026,41.843515 0 0 1 6.45827,-0.45766 42.623751,36.678457 0 0 1 9.87708,72.3762 z"
     id="path1-4"
     style="display:inline;fill:#fafaf9;fill-opacity:1;stroke-width:7.04802" /><path
     d="m 261.68182,463.86434 a 51.77919,36.302342 0 0 1 51.87419,-36.43557 40.853306,28.642214 0 0 1 5.89048,0 47.503843,33.3049 0 0 1 72.30086,-20.78226 53.394321,37.434709 0 0 1 100.23311,18.25109 11.495931,8.0597858 0 0 1 0,1.26558 53.489329,37.501318 0 0 1 -11.78098,74.07011 h -167.2135 a 51.77919,36.302342 0 0 1 -51.30416,-36.36895 z"
     id="path1-42"
     style="display:inline;fill:#fafaf9;fill-opacity:1;stroke-width:7.95513" /><path
     d="m 974.36972,132.32654 a 43.601547,34.106076 0 0 0 -39.88048,-33.979522 25.238743,19.742292 0 0 0 -25.23866,-18.982974 25.562317,19.9954 0 0 0 -11.64871,2.214675 43.43976,33.979524 0 0 0 -77.81941,12.908429 25.319637,19.80557 0 0 0 -36.6447,17.654162 c 0,0 0,0.56949 0,0.88588 a 36.725607,28.727567 0 0 0 -6.06703,-0.44296 34.460593,26.955825 0 1 0 0,53.91165 h 154.18276 a 43.68244,34.169353 0 0 0 43.11623,-34.16934 z"
     id="path1-9"
     style="display:inline;fill:#fafaf9;fill-opacity:1;stroke-width:7.15448" /><path
     d="m 1399.6988,463.73965 a 36.461055,31.498311 0 0 0 -30.8096,-31.49831 13.855202,11.969359 0 0 0 0,-1.36493 21.876633,18.898987 0 0 0 -38.7094,-11.70687 30.384213,26.248593 0 0 0 -52.2001,14.38423 17.319002,14.961697 0 0 0 -12.8221,-4.82973 17.562075,15.171686 0 0 0 -17.5621,15.22418 16.346706,14.121743 0 0 0 0.7292,4.25227 27.588865,23.833722 0 0 0 4.9222,47.24747 32.024961,27.666016 0 0 0 3.4031,0 v 0 h 106.8308 a 36.461055,31.498311 0 0 0 36.4611,-31.49831 z"
     id="path1-19"
     style="display:inline;fill:#fafaf9;fill-opacity:1;stroke-width:5.64815" /><use
     x="0"
     y="0"
     xlink:href="#path1-7"
     id="use2"
     transform="translate(748.33908,693.74244)" /><use
     x="0"
     y="0"
     xlink:href="#path1-9"
     id="use3"
     transform="translate(665.19029,614.54811)" /></svg>
