<?xml version="1.0" encoding="UTF-8" standalone="no"?>
<!-- Created with Inkscape (http://www.inkscape.org/) -->

<svg
   width="2000"
   height="1000"
   viewBox="0 0 2000 1000"
   version="1.1"
   id="svg1"
   xml:space="preserve"
   inkscape:version="1.3.2 (091e20e, 2023-11-25, custom)"
   sodipodi:docname="trees1.svg"
   inkscape:export-filename="..\..\Documents\functions-and-glory\repos\functionsandglory.github.io\public\assets\trees1.svg"
   inkscape:export-xdpi="96"
   inkscape:export-ydpi="96"
   xmlns:inkscape="http://www.inkscape.org/namespaces/inkscape"
   xmlns:sodipodi="http://sodipodi.sourceforge.net/DTD/sodipodi-0.dtd"
   xmlns="http://www.w3.org/2000/svg"
   xmlns:svg="http://www.w3.org/2000/svg"><sodipodi:namedview
     id="namedview1"
     pagecolor="#ffffff"
     bordercolor="#000000"
     borderopacity="0.25"
     inkscape:showpageshadow="2"
     inkscape:pageopacity="0.0"
     inkscape:pagecheckerboard="0"
     inkscape:deskcolor="#d1d1d1"
     inkscape:document-units="px"
     inkscape:zoom="0.42123006"
     inkscape:cx="900.93286"
     inkscape:cy="699.14289"
     inkscape:window-width="1920"
     inkscape:window-height="991"
     inkscape:window-x="-9"
     inkscape:window-y="-9"
     inkscape:window-maximized="1"
     inkscape:current-layer="svg1" /><defs
     id="defs1" /><path
     style="fill:#292524;fill-opacity:1;stroke-width:1.12929"
     d="m -11.209648,991.73902 v -11.05738 l 5.804326,-1.12921 c 11.8547455,-2.30631 13.3158394,-2.94451 13.3158394,-5.81597 0,-1.47833 -0.3515028,-2.68799 -0.7811361,-2.68799 -0.4295699,0 -3.4836478,1.08282 -6.78682924,2.40635 -8.29953446,3.32552 -11.55220006,2.52941 -11.55220006,-2.8272 0,-3.2476 -0.531485,-4.12516 -2.737115,-4.51944 -4.592987,-0.82124 -1.767492,-3.11128 7.9314673,-6.42839 6.36035235,-2.17518 9.8806879,-4.05943 11.7599649,-6.29436 l 2.6822005,-3.18973 -3.3310699,0.69107 c -8.4037229,1.74372 -15.6063148,1.70609 -18.8658848,-0.0984 l -3.214505,-1.77967 4.594628,-2.60322 c 2.5270544,-1.43176 7.9246891,-3.93118 11.99479952,-5.55427 8.72942198,-3.48109 13.75820948,-7.53355 11.37261848,-9.16461 -1.4731967,-1.00724 -4.6990698,-0.43147 -20.667748,3.6886 -1.5351,0.39607 -1.706853,-0.38156 -0.904415,-4.0956 1.2682521,-5.86965 5.4787332,-10.64927 9.397971,-10.6682 2.2287605,-0.0114 2.4933769,-0.21701 1.06949457,-0.83362 -3.52022867,-1.52426 -0.67193939,-5.34477 5.17768223,-6.94494 7.0403122,-1.92598 8.3020822,-3.41229 2.8968068,-3.41229 -2.3218994,0 -6.503144,-0.6518 -9.2916784,-1.44834 l -5.0700213,-1.44835 8.6511421,-5.32143 c 7.6410668,-4.70012 8.54302,-5.61241 7.7249867,-7.8138 -0.7540907,-2.02931 -0.2694169,-2.7866 2.6085303,-4.07587 3.899138,-1.74676 4.376676,-3.27348 1.879194,-6.00768 -2.377361,-2.60275 -0.848091,-3.06088 4.816225,-1.44272 6.494113,1.85521 6.561025,1.83713 4.278149,-1.15495 -2.277634,-2.98517 -2.580601,-6.47631 -0.601196,-6.92744 0.883072,-0.20124 0.764445,-1.41896 -0.331655,-3.40437 -1.555644,-2.81785 -1.440089,-3.23026 1.307928,-4.66673 2.593986,-1.35593 3.068747,-2.61742 3.404506,-9.04573 0.308104,-5.89902 0.821023,-7.4701 2.43878,-7.4701 1.363159,0 2.167342,1.09349 2.40346,3.26816 0.785746,7.23539 1.755579,9.22529 4.814014,9.8777 1.66404,0.35496 3.45298,1.10181 3.975477,1.65967 0.522521,0.55786 1.323863,0.7587 1.780774,0.44635 0.45687,-0.31241 -0.429255,-1.98099 -1.969217,-3.708 -3.807431,-4.26993 -3.75361,-6.73879 0.128604,-5.89634 2.794429,0.60638 2.896175,0.42576 2.073257,-3.67921 -0.47596,-2.37427 -1.869069,-5.36415 -3.095775,-6.64418 -2.079549,-2.16996 -2.071339,-2.32737 0.121449,-2.32737 1.718662,0 2.076604,-0.43986 1.329608,-1.63405 -2.174815,-3.47691 -2.360207,-6.76977 -0.381097,-6.76977 1.06175,0 2.66793,0.50424 3.569293,1.12051 2.467405,1.68696 1.973195,0.23328 -1.087449,-3.19889 -3.593056,-4.02918 -3.630122,-5.78435 -0.09514,-4.49077 4.714182,1.72498 5.737961,1.11885 3.378744,-2.00044 -2.107125,-2.78588 -2.095233,-3.04144 0.194694,-4.18623 2.076668,-1.03823 2.195862,-1.58359 0.802923,-3.67377 -1.228177,-1.843 -1.247395,-2.77452 -0.07745,-3.73861 0.857247,-0.7062 1.171011,-2.33995 0.697198,-3.63052 -0.6832,-1.86113 -0.348198,-2.34653 1.619439,-2.34653 2.182118,0 2.424761,-0.70248 2.015965,-5.83599 -0.506081,-6.35512 0.271373,-7.8127 4.432496,-8.31051 2.304007,-0.27565 2.797017,0.25772 3.150329,3.40827 0.252874,2.25489 1.429967,4.2901 2.970306,5.13567 2.313923,1.27022 2.439853,2.13556 1.352698,9.29504 -0.816834,5.37955 -0.734157,8.27699 0.259587,9.09562 0.886123,0.73006 1.095931,2.85306 0.534704,5.41172 -1.005781,4.58587 0.158072,5.26353 4.023975,2.34288 3.305223,-2.49705 5.341794,-2.38123 4.104102,0.23343 -0.546977,1.15552 -1.157582,4.20193 -1.357011,6.76975 -0.304187,3.9179 0.201218,5.08218 3.142563,7.23897 3.773226,2.76681 5.658083,2.14826 5.698076,-1.86983 0.02524,-2.4495 1.212663,-2.62722 4.881387,-0.73002 3.830141,1.98068 8.452264,1.77611 9.471342,-0.41923 0.573674,-1.23578 -0.551614,-3.25091 -3.39124,-6.07273 -4.941695,-4.91075 -9.501785,-11.46879 -9.544828,-13.72683 -0.01473,-0.86531 0.561499,-2.63697 1.284439,-3.93706 l 1.314433,-2.36375 7.701495,2.76987 c 7.59395,2.73119 16.048158,3.62696 17.637468,1.86879 0.44796,-0.4956 -0.83506,-2.6053 -2.85117,-4.68823 -2.78206,-2.8743 -4.29142,-3.65145 -6.26167,-3.22392 -6.803016,1.47629 -14.898095,-6.94556 -17.015428,-17.70221 l -0.899932,-4.57207 3.968806,0.64254 c 2.182855,0.35341 7.041682,0.88696 10.797398,1.18567 l 6.828646,0.54313 -3.75574,-2.73415 c -2.06567,-1.50371 -3.755734,-3.56315 -3.755734,-4.57642 0,-1.01327 -1.146305,-2.51341 -2.547374,-3.33363 -2.553343,-1.49474 -5.170807,-7.96442 -3.644484,-9.00799 0.447127,-0.3057 2.484182,0.11412 4.52674,0.93279 4.527438,1.81474 18.246252,4.66236 19.227982,3.99111 0.39032,-0.26681 -0.63608,-1.12963 -2.28087,-1.91729 -1.64473,-0.78767 -2.99046,-1.87803 -2.99046,-2.42309 0,-0.54506 -1.84373,-2.42669 -4.09718,-4.18147 -2.25345,-1.75478 -4.09716,-3.68336 -4.09716,-4.28583 0,-0.60241 -2.07473,-2.58371 -4.610441,-4.40286 -3.147383,-2.25792 -4.886067,-4.56683 -5.479048,-7.27598 l -0.86864,-3.96848 5.820473,-0.11058 c 9.952796,-0.18901 14.014866,-1.10682 14.014866,-3.16687 0,-1.57437 -1.20804,-1.94709 -7.90571,-2.43913 -4.348126,-0.31941 -8.263043,-0.82511 -8.699787,-1.1237 -1.728726,-1.18192 1.314116,-5.76886 5.912434,-8.91276 3.124653,-2.13635 4.432973,-3.7001 3.675243,-4.39277 -0.64711,-0.59158 -3.441692,-3.29329 -6.210225,-6.00381 l -5.03369,-4.92827 3.720679,-2.54385 c 2.046344,-1.39911 4.970026,-2.81495 6.497126,-3.14634 1.52705,-0.33139 6.11268,-2.64676 10.19027,-5.14531 l 7.41372,-4.54276 -3.32699,-4.08442 c -1.82979,-2.24645 -6.2802,-6.731 -9.88965,-9.96566 -6.362799,-5.70215 -6.495858,-5.95095 -4.36886,-8.1704 2.55746,-2.66866 3.63307,-2.81937 6.02976,-0.84495 0.9642,0.79435 3.60873,2.34764 5.87673,3.45182 4.33256,2.10927 4.07163,1.35299 -1.22635,-3.55473 -3.04341,-2.81919 -7.43475,-9.19408 -7.43475,-10.79292 0,-1.36817 6.37723,-0.91608 8.19434,0.58087 0.9351,0.77036 2.26736,1.40066 2.96059,1.40066 1.4781,0 0.0105,-6.58192 -1.7605,-7.89027 -0.66003,-0.48786 -1.20947,-2.16863 -1.22097,-3.73504 -0.0105,-1.56637 -0.58321,-3.45558 -1.27048,-4.1983 -1.33495,-1.44266 0.46966,-4.7191 2.59926,-4.7191 0.66643,0 1.92884,1.48556 2.80529,3.30124 1.49569,3.09868 7.38368,6.89091 8.99191,5.79137 1.69277,-1.15736 -1.49508,-7.6929 -5.87658,-12.04784 -3.94492,-3.92101 -9.8029,-13.34369 -9.92639,-15.96663 -0.0168,-0.39246 2.43727,0.40436 5.45711,1.77072 6.75494,3.05632 8.17514,2.40276 3.68569,-1.69616 -4.6443,-4.24031 -7.81062,-8.69416 -7.81062,-10.98662 0,-2.52974 1.1286,-2.37562 6.77705,0.92534 6.2982,3.6807 9.06652,3.60148 9.48193,-0.2714 0.93839,-8.74866 0.74805,-9.28809 -4.42001,-12.52624 -5.56412,-3.48632 -5.93716,-4.22717 -2.97497,-5.90802 1.28802,-0.73087 1.73514,-1.97289 1.21767,-3.38249 -0.6681,-1.82 -0.29091,-2.22755 2.06179,-2.22755 4.0862,0 3.73355,-3.24091 -0.74735,-6.86841 l -3.62684,-2.93606 3.44077,-0.2832 c 5.24184,-0.4314 8.96646,-6.72001 3.98011,-6.72001 -1.41029,0 -3.38607,-0.67708 -4.39057,-1.50462 -1.58767,-1.30795 -1.04449,-1.96044 4.15638,-4.99262 4.48833,-2.61676 5.745,-3.91157 5.031,-5.18373 -0.65641,-1.16956 0.20016,-2.51776 2.76055,-4.34497 5.16631,-3.6869 8.35232,-3.47453 9.28514,0.61893 0.40961,1.79746 1.06406,4.68111 1.45432,6.40809 0.39026,1.72701 1.92672,3.89309 3.41429,4.81353 3.65159,2.25939 3.4034,4.05001 -0.70953,5.11914 -5.99308,1.55789 -4.13497,5.89105 2.97848,6.94592 5.9803,0.88682 7.99563,2.69214 5.16547,4.62715 -1.20631,0.82477 -3.37855,1.49959 -4.82723,1.49959 -1.44863,0 -2.63389,0.43368 -2.63389,0.96376 0,2.12558 3.99764,7.29754 8.12454,10.51118 5.82175,4.5334 5.40565,7.76982 -0.95531,7.43012 -2.44074,-0.13051 -4.43778,0.0902 -4.43778,0.49008 0,0.39987 2.72788,2.4821 6.06184,4.62723 l 6.06184,3.90014 -2.18316,3.79986 c -1.45341,2.52985 -3.25125,3.98319 -5.37894,4.34831 -1.75772,0.30159 -3.19586,1.17245 -3.19586,1.93522 0,0.76277 -1.22914,1.60658 -2.73141,1.87519 -1.50229,0.26858 -2.73146,0.85956 -2.73146,1.31321 0,1.38258 2.63703,0.9285 6.78534,-1.1684 7.05127,-3.56438 11.06793,-0.0667 5.50618,4.79455 -3.1925,2.79049 -3.44709,3.86416 -0.74828,3.15612 4.38538,-1.15056 4.7507,0.70881 1.3602,6.92247 -1.87942,3.4442 -4.66503,7.43341 -6.19024,8.86488 -3.92661,3.68527 -6.83553,9.81155 -5.88643,12.39706 0.78616,2.14157 0.89785,2.15708 4.36271,0.60486 1.95571,-0.87613 4.94043,-2.53957 6.6326,-3.69655 7.73377,-5.28761 9.64898,-0.67998 3.20086,7.70088 -2.2534,2.92895 -4.09713,5.50536 -4.09713,5.72533 0,0.22001 1.78531,-0.50243 3.96733,-1.60539 2.18205,-1.10302 4.63,-1.72546 5.43989,-1.38325 2.37077,1.00179 0.36069,14.69872 -2.40757,16.4054 -1.24956,0.77036 -4.93061,4.13188 -8.18008,7.47006 -6.74086,6.92483 -5.81099,7.91209 4.51165,4.79016 3.63912,-1.10064 6.50895,-1.50067 6.98527,-0.97374 0.44464,0.4919 -0.22705,3.02582 -1.49265,5.63106 -2.03345,4.18572 -2.6804,4.68707 -5.56247,4.31038 -1.79373,-0.23444 -3.26137,-0.0643 -3.26137,0.37802 0,0.44235 -1.22917,1.64468 -2.73146,2.6718 -2.98054,2.03783 -3.64709,4.66881 -1.18277,4.66881 0.85182,0 3.92866,-0.48754 6.83742,-1.08336 2.90883,-0.59587 5.62824,-0.85126 6.04322,-0.56755 1.62488,1.11091 -7.46176,12.88107 -10.54661,13.66128 -2.90695,0.7352 -2.78021,0.85802 1.99794,1.9362 2.95473,0.66669 7.33697,0.89302 10.41288,0.53769 4.7097,-0.54403 5.42221,-0.37408 6.29261,1.50097 0.76931,1.65716 0.13134,2.58491 -2.94937,4.28965 -2.16199,1.19634 -5.23659,2.40861 -6.83244,2.69393 -1.59582,0.28535 -3.58007,1.53696 -4.40934,2.78137 -0.82928,1.24443 -2.13557,2.2626 -2.90283,2.2626 -0.76723,0 -1.395,0.47802 -1.395,1.06231 0,0.73832 2.29099,0.87823 7.51151,0.45872 6.9477,-0.55829 7.51151,-0.46 7.51151,1.3093 0,2.35246 -4.49604,8.53125 -7.41165,10.18564 -3.76056,2.13384 -2.4135,3.55247 3.99733,4.20977 4.14418,0.4249 6.14577,1.08647 6.14577,2.03137 0,2.49641 -6.62234,11.05602 -11.67814,15.09439 -4.28625,3.42369 -4.61818,4.01548 -2.55558,4.55663 2.88086,0.75585 8.6335,-1.33977 10.68449,-3.89214 2.08107,-2.58987 3.65448,-3.23734 7.9072,-3.25386 4.57221,-0.0173 6.19076,-1.54144 2.49048,-2.34443 -3.51087,-0.76185 -3.46356,-1.75561 0.24726,-5.18708 2.79992,-2.58936 2.88417,-3.09653 1.27307,-7.66573 -0.94892,-2.69109 -1.83722,-6.01339 -1.97406,-7.38294 -0.13661,-1.36948 -0.70974,-2.80515 -1.27313,-3.19032 -0.56335,-0.38518 -1.02429,-1.93586 -1.02429,-3.44589 0,-2.0699 0.50412,-2.60606 2.0486,-2.17877 1.12672,0.31174 2.89873,0.80303 3.93783,1.09175 1.88234,0.52308 2.32948,-0.49087 4.45239,-10.09599 0.46855,-2.11998 1.52558,-3.50161 2.67905,-3.50161 2.56371,0 2.39047,-0.88102 -0.82636,-4.20193 -3.62324,-3.74053 -3.4318,-6.22781 0.68288,-8.87071 4.53563,-2.91326 4.31348,-4.10483 -1.31216,-7.03857 -4.43624,-2.31348 -7.29317,-5.59741 -5.7735,-6.63645 0.37138,-0.25392 3.05362,0.36794 5.96061,1.38193 l 5.28543,1.84355 -0.29228,-3.57495 c -0.16081,-1.9662 -1.55776,-5.2709 -3.10448,-7.34376 -3.95664,-5.30261 -3.67603,-6.64453 1.38948,-6.64453 h 4.20164 l -0.78027,-8.63728 c -0.59819,-6.6219 -0.22787,-9.99982 1.58712,-14.47682 1.30207,-3.21174 2.98898,-5.69865 3.74866,-5.52649 0.78834,0.17863 1.54649,4.74679 1.76608,10.64065 0.36204,9.71728 0.56064,10.359 3.36043,10.85958 l 2.97565,0.53204 -3.0094,2.19018 c -3.65004,2.65639 -1.72289,5.00555 2.76052,3.36506 4.07024,-1.48938 4.2362,-0.40196 0.41279,2.70471 -4.59251,3.73161 -4.39485,4.82102 1.48737,8.19753 4.86901,2.79495 4.92051,2.89547 2.87136,5.60478 -1.14771,1.51736 -3.37872,3.55823 -4.95792,4.53536 -1.57919,0.97714 -2.87128,2.5795 -2.87128,3.56079 0,0.98132 -0.63618,2.59695 -1.41375,3.59032 -1.90674,2.43589 -0.22395,2.27241 5.90096,-0.57316 2.81667,-1.30859 5.72489,-2.12419 6.4628,-1.81239 2.30945,0.97587 1.46524,5.07132 -1.38987,6.74274 -1.50234,0.87948 -2.73149,2.17617 -2.73149,2.88153 0,0.70535 -1.06972,2.5206 -2.37717,4.03387 -2.08223,2.41 -2.1246,2.86057 -0.34143,3.63137 1.11969,0.48399 3.72581,0.88641 5.79146,0.89428 5.75494,0.022 4.62477,2.19501 -3.69578,7.10639 -4.09834,2.41911 -7.66163,5.06955 -7.9185,5.88979 -0.62875,2.00827 4.5628,7.40593 7.15234,7.43626 1.13953,0.0129 3.68972,0.29646 5.66692,0.62914 3.00486,0.50557 4.23798,0.054 7.51152,-2.75111 4.2448,-3.63726 6.56914,-4.19241 7.86753,-1.87902 1.39652,2.48819 0.92412,5.05932 -0.92948,5.05932 -0.96719,0 -4.80151,2.1123 -8.52074,4.69398 -5.7764,4.00963 -7.31197,4.61141 -10.53307,4.12771 -2.07393,-0.31145 -3.77076,-0.16406 -3.77076,0.32735 0,2.16193 4.20534,3.00466 13.82029,2.76947 10.02241,-0.24512 10.07781,-0.2332 9.71244,2.08788 -0.50249,3.19197 -3.08365,4.2855 -13.43672,5.69246 -8.73967,1.18771 -8.85826,1.2447 -8.45573,4.05895 0.37833,2.64492 0.83956,2.87556 6.28703,3.14394 3.47057,0.17097 6.18069,0.82762 6.61585,1.60301 0.93706,1.66966 -8.67064,9.76959 -11.6348,9.80888 -1.64059,0.0217 -1.2184,0.63531 1.6064,2.3344 4.25002,2.55639 7.78966,2.89385 11.93411,1.13768 3.33289,-1.41223 5.34872,0.15275 5.38181,4.17796 0.028,3.3978 -6.90468,6.0881 -11.77706,4.57028 -1.77372,-0.55259 -3.22497,-0.67438 -3.22497,-0.27069 0,0.77592 10.54147,6.32123 15.93218,8.38111 4.50414,1.72104 3.95998,4.47886 -1.58974,8.05745 -2.65438,1.71159 -5.16855,4.41676 -5.6571,6.08697 -0.48369,1.65342 -1.70997,3.22413 -2.72514,3.49045 -1.44238,0.37845 -1.23037,1.07511 0.97006,3.18793 2.96901,2.85075 5.82298,3.67912 4.4894,1.303 -0.88698,-1.58034 2.90616,-1.99349 4.28613,-0.46687 0.46426,0.51357 2.19061,0.92911 3.83639,0.9234 2.73741,-0.006 2.62846,-0.20641 -1.27863,-2.31231 -2.34898,-1.26609 -4.58882,-3.13322 -4.97736,-4.14913 -0.6066,-1.58595 0.19049,-1.93855 5.63661,-2.49349 3.48868,-0.35549 7.87954,-1.2979 9.75744,-2.09422 1.87784,-0.79634 3.54023,-1.48612 3.69418,-1.53282 0.45989,-0.13944 -2.97404,-6.40427 -4.6138,-8.41724 -4.50406,-5.52928 -8.00764,-21.00957 -4.75501,-21.00957 0.63475,0 2.26646,0.84035 3.626,1.86747 1.3596,1.02714 3.87418,1.86753 5.58802,1.86753 4.42515,0 5.03408,-5.04402 1.07086,-8.87071 -3.52531,-3.40388 -7.87017,-12.19953 -6.67783,-13.51852 0.47465,-0.52509 2.78544,-0.95476 5.13511,-0.95476 h 4.2721 l -3.66984,-2.61891 c -4.93997,-3.52538 -4.91237,-5.06495 0.0859,-4.79605 0.56335,0.0305 1.37577,-0.91515 1.80533,-2.10096 0.55541,-1.53331 1.64024,-2.09183 3.75576,-1.93365 3.38646,0.25323 3.7553,-1.46309 1.64931,-7.67404 -1.00583,-2.96629 -0.81868,-4.05019 0.92711,-5.36914 2.70596,-2.04429 3.70126,-2.06214 6.54594,-0.11728 1.86201,1.27305 2.18482,3.30696 1.8898,11.90543 -0.34448,10.04034 -0.26071,10.37959 2.63204,10.66847 3.38822,0.33839 3.7113,1.26925 1.34123,3.86398 -1.33178,1.45802 -1.23496,2.12497 0.50642,3.48893 2.22933,1.74613 2.45509,8.39687 0.4017,11.83285 -0.90719,1.51796 -0.68567,1.61252 1.71747,0.7332 3.68524,-1.3485 4.41739,-0.63208 3.51929,3.44347 -0.54272,2.46267 -2.32666,4.37704 -6.38158,6.84811 l -5.62825,3.42988 4.78002,0.10983 c 2.62904,0.0604 7.69929,0.14565 11.26724,0.1892 8.21981,0.10035 8.28859,1.37571 0.29502,5.47066 -3.40572,1.74468 -6.57322,4.23888 -7.03891,5.54268 -0.46571,1.30379 -1.43149,2.63282 -2.1462,2.95339 -3.63274,1.62934 8.52311,9.04059 18.69347,11.39714 10.46048,2.42375 11.5255,2.00065 5.53026,-2.1971 -4.17722,-2.92478 -5.71589,-4.94063 -6.94918,-9.10414 -0.87123,-2.94117 -1.37275,-5.50522 -1.11443,-5.69789 0.25819,-0.1927 2.96583,0.33255 6.0168,1.16718 7.51357,2.05544 7.95143,1.93351 3.77127,-1.05029 -3.97124,-2.83476 -7.83933,-8.46399 -7.83933,-11.40857 0,-2.36301 0.98276,-2.3678 6.14571,-0.0298 2.25345,1.02038 4.50059,1.85799 4.99366,1.86136 1.44057,0.006 -0.41785,-3.98815 -3.06196,-6.58711 -5.51679,-5.42251 -4.37,-9.63382 1.61495,-5.93062 1.31773,0.81535 3.51709,1.33036 4.88755,1.14443 2.06212,-0.27977 1.5002,-1.00574 -3.2602,-4.21161 -5.99718,-4.03879 -8.5737,-8.13639 -6.15562,-9.78965 0.77726,-0.53143 4.23535,-0.81278 7.68464,-0.62524 3.44922,0.18767 6.2714,0.18345 6.2714,-0.008 0,-0.19267 -1.87571,-1.81093 -4.16818,-3.59614 -4.9658,-3.86684 -4.59187,-5.45394 1.24084,-5.26688 2.36118,0.0758 4.29307,0.0497 4.29307,-0.0581 0,-0.10768 -1.22916,-1.93512 -2.73146,-4.06104 -3.48026,-4.92494 -3.48026,-6.19868 0,-5.46508 1.5023,0.3167 3.97059,0.83668 5.48514,1.15556 l 2.75365,0.57974 -2.75365,-4.39221 c -3.43619,-5.48087 -3.46304,-5.32844 0.80764,-4.59559 3.26708,0.56062 3.43637,0.45142 2.04859,-1.32147 -2.28015,-2.91297 -1.98956,-8.91658 0.40129,-8.2893 2.29157,0.60122 3.50395,-1.96896 3.53024,-7.48388 0.0189,-4.09446 2.20928,-6.11005 4.24755,-3.9098 0.6557,0.70775 1.20159,3.88823 1.21306,7.06773 0.0189,5.63136 1.13331,7.20879 5.12713,7.26706 0.93058,0.0129 1.77656,0.34688 1.88009,0.74066 0.29888,1.13735 -1.54228,9.90309 -2.40163,11.43427 -0.50676,0.90293 0.055,1.38928 1.60469,1.38928 2.0787,0 2.28875,0.68825 1.63845,5.3691 -0.41024,2.95303 -1.20059,6.20948 -1.75643,7.23664 -0.83061,1.53504 -0.68295,1.65971 0.8294,0.70032 2.67798,-1.69893 6.72191,-1.42817 6.97287,0.46684 0.45253,3.41725 -0.34812,5.50889 -3.77701,9.86756 -3.83557,4.87551 -3.67532,6.02055 0.62243,4.44796 1.51724,-0.55518 3.10635,-1.00941 3.53131,-1.00941 1.90252,0 0.4768,5.36989 -2.57845,9.7114 -1.84309,2.61903 -3.72826,5.84878 -4.18925,7.17721 -0.78268,2.25532 -0.56066,2.38752 3.35106,1.99499 4.96481,-0.49822 5.10696,-0.0436 1.30202,4.16584 -3.37616,3.73489 -2.67374,4.83647 1.73706,2.72419 4.02498,-1.92755 7.97881,-1.91693 7.97881,0.0215 0,2.4841 -6.98474,12.62835 -11.97466,17.39136 -2.55567,2.43941 -3.94928,4.43532 -3.09683,4.43532 2.31703,0 9.48097,-2.63818 16.74383,-6.16608 l 6.45238,-3.13421 3.38706,2.31574 c 6.48119,4.43127 8.80545,1.52113 2.96582,-3.7134 -4.97488,-4.45946 -2.32786,-10.50196 3.00364,-6.85674 0.90142,0.61629 1.71065,0.93145 1.79831,0.70033 0.0878,-0.23112 0.85586,-3.57163 1.70717,-7.42338 1.43859,-6.5093 1.78242,-7.00321 4.87525,-7.00321 3.72429,0 4.92004,2.0707 6.63485,11.48982 0.94674,5.20033 1.08214,5.33714 6.1255,6.18925 11.63218,1.96536 16.32564,-2.51254 13.8453,-13.20941 -1.0619,-4.5797 -1.72135,-5.44888 -4.32581,-5.7018 -3.49601,-0.33947 -4.02341,-2.20177 -1.09417,-3.86391 1.08836,-0.6175 2.66762,-2.66484 3.50948,-4.54968 0.8419,-1.88479 2.06344,-4.26726 2.71444,-5.29442 0.65099,-1.02711 1.81779,-5.81093 2.59276,-10.63064 1.88094,-11.69732 3.16691,-12.59032 5.58368,-3.87738 0.75647,2.72714 1.37536,7.55371 1.37536,10.72576 0,5.1892 0.41074,6.03629 4.0972,8.45107 2.25348,1.4761 4.09715,3.44557 4.09715,4.37661 0,1.25843 -1.05141,1.69284 -4.09715,1.69284 -2.25342,0 -4.0972,0.30068 -4.0972,0.66822 0,0.36754 2.84953,2.64624 6.33224,5.06378 4.41761,3.06646 6.06441,4.87279 5.44632,5.97398 -0.85965,1.5317 -2.50206,1.52596 -8.02277,-0.0277 -2.13281,-0.60033 -2.39005,-0.0154 -2.39005,5.43039 v 6.10313 l 7.48769,1.0628 c 4.11822,0.58454 7.87104,1.48688 8.33959,2.00524 1.40029,1.54907 -5.19528,5.00134 -9.55509,5.00134 -3.84012,0 -4.12705,0.2839 -5.94612,5.88335 -2.19411,6.7537 -1.65211,7.61307 6.62152,10.49893 5.46878,1.90751 6.70968,1.36765 6.70968,-2.91915 0,-0.98511 0.92185,-1.79114 2.0486,-1.79114 1.4214,0 2.04856,-0.97716 2.04856,-3.19178 0,-1.7555 0.37168,-3.85403 0.82598,-4.66344 1.67612,-2.98639 3.27121,-0.2675 3.27121,5.57593 0,4.25864 0.5094,6.01434 1.74507,6.01434 4.00729,0 6.69422,3.81179 6.22424,8.83005 -0.28849,3.07977 0.20373,5.43295 1.33006,6.36148 1.40374,1.15696 1.45966,2.30686 0.26042,5.35186 -1.42324,3.61376 -1.28686,4.04274 1.99949,6.28962 3.34505,2.28706 3.6202,2.32414 5.33672,0.71915 0.99538,-0.9307 2.51759,-1.39313 3.38269,-1.02759 2.22634,0.94075 1.96883,0.18614 -1.18284,-3.46595 -2.42565,-2.8108 -2.51086,-3.33239 -0.71157,-4.35337 1.53116,-0.8688 1.69276,-1.6089 0.64403,-2.9487 -0.77009,-0.98383 -0.91079,-2.30533 -0.31274,-2.93668 0.59808,-0.63132 1.70202,-3.24883 2.45319,-5.81666 1.58156,-5.40674 3.9267,-6.1406 4.47573,-1.40064 0.73876,6.37747 4.73463,19.17301 6.63392,21.24303 1.06023,1.15553 2.68179,2.09011 3.60339,2.07687 2.12615,-0.0305 6.45571,-6.37751 6.45571,-9.46382 0,-1.28684 0.40436,-2.61621 0.89864,-2.95413 1.7054,-1.16603 4.56425,1.47337 4.56425,4.21389 0,4.54015 2.26038,6.21532 10.61713,7.86839 4.30109,0.85082 8.69506,1.77295 9.76446,2.04923 1.32823,0.34314 1.68657,0.0434 1.13098,-0.94672 -0.44726,-0.79694 -0.11977,-1.92288 0.72718,-2.50216 1.1434,-0.78173 -0.82008,-2.55969 -7.61821,-6.89828 -5.03726,-3.21484 -9.15863,-6.3769 -9.15863,-7.02686 0,-2.05907 4.00137,-2.33562 10.23657,-0.70757 8.20617,2.14274 14.88892,1.66122 15.46547,-1.11439 0.30889,-1.48692 -0.48802,-2.34877 -2.73144,-2.95403 -1.74217,-0.47001 -7.89068,-4.04564 -13.66334,-7.94583 -9.68616,-6.54427 -13.38203,-10.20435 -11.56127,-11.4492 0.77567,-0.53032 11.47817,1.01242 21.02795,3.03115 5.63486,1.19112 5.8227,1.16281 6.61578,-0.99766 0.85123,-2.31878 -2.01283,-5.548 -11.46776,-12.92994 -2.81625,-2.19879 -4.35696,-4.25186 -3.96322,-5.28122 0.35424,-0.92621 -0.50832,-2.87912 -1.91687,-4.33978 -1.40854,-1.4607 -2.56502,-2.97089 -2.56996,-3.35609 -0.0148,-1.32926 4.79448,-0.67459 12.0767,1.6432 4.01815,1.27892 8.0018,2.3253 8.85252,2.3253 0.85082,0 -2.23735,-2.41612 -6.86254,-5.36913 -6.46975,-4.13074 -8.6282,-6.18682 -9.35791,-8.91427 -1.18918,-4.44487 -0.0992,-5.24305 3.82337,-2.80029 4.09218,2.54822 8.41571,4.01102 11.85495,4.01102 3.75008,0 3.56309,-0.82226 -1.06631,-4.68947 -4.71876,-3.9418 -7.03822,-6.83814 -7.03822,-8.78863 0,-1.85752 3.23848,-1.8939 5.46283,-0.0614 1.84398,1.51905 6.46565,1.8258 9.25762,0.61444 1.31605,-0.57102 0.72743,-1.63394 -2.39001,-4.31602 -2.27487,-1.95713 -4.13611,-4.2678 -4.13611,-5.13479 0,-0.86702 -1.53643,-2.56323 -3.41435,-3.76941 -6.88376,-4.42155 -3.61791,-4.96656 5.65858,-0.94433 3.53992,1.53491 6.71953,2.59702 7.06582,2.36026 0.34627,-0.23672 -2.58994,-2.40952 -6.52492,-4.82842 -7.49081,-4.60472 -9.63409,-7.07091 -8.56785,-9.85876 0.86311,-2.25641 2.58842,-2.10117 7.39749,0.66549 3.40437,1.95855 7.94529,3.12134 7.94529,2.03456 0,-0.16502 -2.76561,-2.27324 -6.14578,-4.68518 -3.38015,-2.41198 -6.14578,-5.21837 -6.14578,-6.23649 0,-2.25515 -0.37644,-2.25711 6.19081,0.0321 6.27926,2.18879 7.54973,1.19698 3.47647,-2.71405 -3.61698,-3.47301 -3.88326,-7.13309 -0.44856,-6.16634 1.31446,0.37003 3.61914,0.90113 5.12143,1.18026 2.56364,0.47638 2.59471,0.39815 0.50614,-1.27314 -3.51977,-2.81644 -6.84591,-7.81378 -5.8984,-8.86201 0.55668,-0.61582 2.02035,-0.43956 4.10493,0.49429 4.89899,2.19465 5.04154,1.84794 1.31037,-3.18639 -4.11364,-5.55025 -4.4564,-7.48731 -0.93977,-5.31142 3.70921,2.29508 4.55289,1.90278 3.57468,-1.66223 -1.11488,-4.06318 0.18607,-5.74565 3.15019,-4.07437 1.93655,1.09184 2.06214,0.49226 1.26155,-6.02413 -0.55904,-4.55004 -0.38851,-7.23664 0.45921,-7.23664 0.74161,0 1.35773,-1.57569 1.36921,-3.50156 0.0107,-1.92589 0.6261,-4.13191 1.36576,-4.90227 2.97895,-3.10262 4.27203,1.14955 3.50634,11.53032 -0.70357,9.53825 -0.58913,10.15796 1.95995,10.6137 3.39495,0.60701 3.3835,1.24331 -0.0957,5.27483 -2.61411,3.02926 -2.64494,3.30825 -0.45762,4.14514 2.20546,0.84388 2.2097,1.22709 0.0713,6.43782 -2.91179,7.09526 -2.97844,6.86833 1.82338,6.21174 4.01949,-0.54963 4.08111,-0.50052 3.24822,2.59116 -0.46691,1.7333 -2.26344,4.93238 -3.99223,7.10914 -1.72879,2.17675 -2.67766,4.15449 -2.1085,4.39497 0.5691,0.2405 4.27106,-1.22534 8.22651,-3.2574 3.95554,-2.03204 7.74469,-3.69463 8.42042,-3.69463 1.58854,0 1.59978,2.53423 0.0105,3.20423 -0.66796,0.28226 -1.60728,1.58323 -2.08738,2.89111 -0.48011,1.30787 -3.01465,4.41618 -5.63233,6.90738 -3.8374,3.65198 -4.35902,4.63441 -2.69266,5.07162 2.96817,0.77874 2.56745,2.4648 -1.57691,6.6347 -2.34638,2.36086 -3.07573,3.79551 -2.04858,4.02961 0.87729,0.19993 1.59503,0.95881 1.59503,1.68634 0,1.52228 2.16675,1.76922 3.41432,0.3891 0.97453,-1.07807 7.51886,-1.28186 7.49674,-0.23347 -0.0107,0.38519 -0.93505,2.77438 -2.05974,5.30932 -2.00087,4.50972 -1.38762,6.06184 2.41594,6.11495 2.15644,0.0301 0.89686,2.7965 -1.70721,3.74934 -1.50227,0.54968 -2.73145,1.40484 -2.73145,1.90035 0,1.11491 6.9129,1.17912 11.17836,0.10389 12.38012,-3.12084 13.99709,-1.4264 4.7028,4.9282 l -5.97048,4.0821 3.23902,1.00902 c 1.78147,0.55493 3.23905,1.38153 3.23905,1.83684 0,1.77751 -5.80598,5.74849 -8.40487,5.74849 -2.69554,0 -2.69058,0.0589 0.28109,3.34626 2.6635,2.94657 2.83996,3.76807 1.47709,6.87808 -1.84648,4.21373 -1.87189,4.78741 -0.28779,6.49824 0.98605,1.06493 2.68565,0.64949 8.92245,-2.18089 l 7.70438,-3.49643 -0.87986,-4.01157 c -0.55457,-2.52835 -0.32655,-4.24539 0.61672,-4.64398 0.83434,-0.35254 1.4966,-3.29381 1.4966,-6.64669 0,-5.54353 1.28751,-7.43338 3.44107,-5.05099 0.9044,1.00051 4.97542,18.22762 4.79234,20.27966 -0.12732,1.42471 -0.0851,4.33705 0.0941,6.53634 0.0731,0.89873 -0.30003,3.14898 -0.82951,5.00053 -0.83683,2.92647 -0.58647,3.43373 1.91538,3.88106 3.4164,0.61085 3.73324,3.17422 0.75207,6.08423 -2.07761,2.02801 -2.0154,2.07528 2.73146,2.07528 5.23495,0 6.11624,0.92458 2.71883,2.85237 -1.17626,0.66746 -3.04128,2.40695 -4.14452,3.86557 l -2.00587,2.65206 5.30948,-0.58047 c 7.05853,-0.77169 8.22643,1.20749 3.64224,6.17248 -4.34439,4.70524 -4.26982,5.58071 0.47543,5.58071 2.12823,0 4.22822,0.24521 4.66657,0.54494 1.26743,0.86655 -4.24812,6.62484 -7.92211,8.27073 -4.22409,1.89232 -4.39299,3.65489 -0.27251,2.84517 1.69006,-0.33216 4.14833,-0.809 5.46282,-1.05962 1.72046,-0.32806 2.39006,0.0852 2.39006,1.47473 0,1.06171 -0.57318,1.93041 -1.27369,1.93041 -0.70054,0 -1.64555,0.80113 -2.10011,1.78023 -0.4545,0.97913 -3.18161,2.42453 -6.06018,3.21196 -6.85431,1.87506 -8.45437,4.34538 -2.8147,4.34538 2.22986,0 4.05431,-0.42395 4.05431,-0.94196 0,-0.58949 2.74165,-0.72163 7.32802,-0.35302 4.57956,0.36796 7.6613,0.22011 8.21665,-0.39429 0.48872,-0.54068 0.30587,-1.22923 -0.4064,-1.53023 -0.77026,-0.32545 -0.50598,-1.58133 0.65218,-3.09924 1.07091,-1.40359 1.95097,-4.54792 1.95554,-6.98735 0.006,-2.43947 0.6014,-4.4354 1.32613,-4.4354 2.55119,0 4.41727,4.02692 5.44754,11.75546 0.57261,4.2951 1.88914,8.50802 2.92563,9.3619 1.03656,0.85387 1.69441,2.54457 1.46205,3.7571 -0.27588,1.43917 0.26742,2.20461 1.56448,2.20461 2.15876,0 3.62321,-2.71432 3.65264,-6.76976 0.0105,-1.6688 0.74512,-2.56782 2.0933,-2.56782 2.12729,0 1.85724,-2.16799 -0.90887,-7.29748 -1.80359,-3.34454 -1.45316,-5.12076 0.88284,-4.47444 1.12675,0.31171 2.97045,0.82182 4.09719,1.13356 2.96632,0.8207 2.61069,-2.25941 -0.68799,-5.95848 -3.6039,-4.04136 -3.46794,-4.5448 1.40741,-5.21148 l 4.13383,-0.56526 -3.43734,-4.63776 c -3.41777,-4.61139 -3.02093,-6.21191 1.26164,-5.08832 1.87336,0.49149 2.08678,0.14698 1.30007,-2.09794 -0.51762,-1.47727 -1.47071,-3.39365 -2.11794,-4.25862 -1.69963,-2.2714 -1.4927,-2.62925 1.52047,-2.62925 2.26814,0 2.56706,-0.44534 1.87859,-2.79893 -0.45035,-1.53943 -0.18271,-3.32524 0.59479,-3.96851 0.77744,-0.64323 1.84422,-2.74522 2.3706,-4.67111 1.76743,-6.46637 4.28058,-4.10636 5.46888,5.13569 1.31821,10.25262 2.16053,20.47347 2.05314,24.91367 -0.091,3.765 4.91233,7.88548 12.07655,9.94535 6.76779,1.9459 8.1154,1.67919 10.39927,-2.05804 2.86205,-4.68325 2.59452,-6.65278 -1.00594,-7.40702 -4.35157,-0.911 -14.68158,-6.81957 -14.68158,-8.39701 0,-1.4027 2.11156,-1.91615 12.99308,-3.15944 l 6.81001,-0.7781 -5.75685,-0.10983 c -4.35154,-0.083 -6.93527,-0.81725 -10.58437,-3.00782 -2.65518,-1.59392 -4.82758,-3.27393 -4.82758,-3.73337 0,-1.27499 12.59786,-6.40341 15.77939,-6.42352 2.88836,-0.0191 11.53512,-5.3965 11.53512,-7.17475 0,-0.54926 -2.30463,-2.04509 -5.12146,-3.32409 -5.74458,-2.60836 -12.79039,-10.06163 -9.51154,-10.06163 1.06175,0 4.6349,1.25293 7.9403,2.78429 6.88903,3.19159 12.90903,3.79834 11.74921,1.18419 -1.96927,-4.43858 -4.25153,-8.53877 -6.7386,-12.10622 -3.28394,-4.71039 -2.60977,-6.41971 2.85566,-7.24043 l 4.08953,-0.61413 -3.36101,-3.38625 c -1.84856,-1.86243 -3.01538,-4.00207 -2.59291,-4.75476 0.4224,-0.75269 -0.55622,-2.33229 -2.17476,-3.51025 -3.11611,-2.26778 -2.7333,-5.03803 0.69609,-5.03803 1.10736,0 4.14548,0.86007 6.75132,1.91131 6.95614,2.80607 8.2948,0.48613 1.78105,-3.0866 -6.97525,-3.82584 -6.21988,-8.16227 1.42179,-8.16227 4.04445,0 3.97068,-1.0092 -0.27306,-3.73508 -4.28066,-2.74947 -4.37422,-4.66878 -0.22762,-4.66878 4.67576,0 5.24587,-0.89907 2.2315,-3.51913 -4.06264,-3.53124 -3.54216,-5.16153 1.41045,-4.41783 4.02991,0.60517 4.09719,0.55272 4.09719,-3.19396 0,-3.83599 1.73094,-5.07117 3.26817,-2.33222 0.45598,0.81233 0.829,2.7032 0.829,4.20192 0,2.41929 0.47051,2.72489 4.1949,2.72489 3.52895,0 4.14717,0.33356 3.89413,2.10099 -0.16521,1.15551 0.16565,2.83952 0.73529,3.74224 0.64712,1.02508 0.14292,2.57341 -1.34327,4.12412 -2.19347,2.28876 -2.20522,2.56998 -0.15009,3.59734 3.07478,1.53719 2.78921,4.11575 -0.74021,6.68443 -2.82118,2.05314 -2.83828,2.16183 -0.34147,2.17542 5.58258,0.0304 6.42453,1.39944 2.71445,4.41403 -4.24668,3.45061 -4.38137,4.53399 -0.64677,5.20173 2.25956,0.40399 2.65348,0.96143 1.89152,2.67673 -0.85741,1.93009 -0.43743,1.82447 3.84867,-0.96788 4.66256,-3.03762 4.85709,-3.07554 6.30286,-1.22859 0.82044,1.0482 1.49178,3.86981 1.49178,6.27032 0,4.15997 0.15596,4.33773 3.33059,3.79301 4.3854,-0.75256 5.63251,0.82847 2.90139,3.67828 -2.07971,2.17012 -2.0519,2.29331 0.51706,2.29331 1.49321,0 3.40607,0.88297 4.25083,1.96214 1.2567,1.60552 0.88212,2.82365 -2.06078,6.70187 l -3.59666,4.73974 3.5678,1.94502 3.56775,1.94507 -3.50753,2.08512 c -4.22226,2.51006 -4.37513,3.89287 -0.77612,7.02114 3.40841,2.96259 3.41708,2.87822 -0.59751,5.83991 -3.32473,2.45275 -3.32569,2.45957 -0.75364,5.35125 1.41642,1.59242 2.23968,3.26667 1.82945,3.7205 -0.41022,0.45382 0.3446,1.64895 1.67738,2.65587 1.85771,1.40348 2.04829,2.08711 0.81665,2.92918 -2.90967,1.98942 -1.81287,4.50796 2.40045,5.51219 4.60404,1.09733 8.61852,4.73625 7.47424,6.775 -0.42872,0.76378 -3.44345,2.14208 -6.69944,3.06285 -5.38891,1.52389 -5.97237,2.011 -6.50394,5.42991 -0.32118,2.06573 -0.3293,4.07854 -0.0168,4.47289 0.31118,0.39441 3.01418,-0.71575 6.00661,-2.46697 5.85309,-3.42542 13.88124,-5.29988 19.53446,-4.56101 3.95776,0.51729 4.35729,-0.3179 1.42155,-2.97166 -2.63668,-2.38338 -2.54745,-4.25689 0.20268,-4.25689 1.66138,0 1.97215,-0.52004 1.25551,-2.10095 -2.43504,-5.37155 -2.38334,-6.03398 0.51119,-6.55154 2.46079,-0.43996 2.85404,-1.22161 2.85404,-5.6726 0,-2.83926 0.71277,-6.3452 1.58388,-7.79093 l 1.58435,-2.62863 0.986,2.8013 c 0.54229,1.54068 1.05871,7.92031 1.14759,14.17689 0.15154,10.67222 0.3382,11.41395 3.01791,11.99546 2.8037,0.60841 2.89955,1.47162 0.58875,5.30292 -0.72518,1.20238 -0.091,1.74444 2.5765,2.20219 3.91801,0.67231 4.27601,1.4529 1.99987,4.36064 -1.25118,1.59841 -1.08797,2.191 0.87362,3.17158 2.25193,1.12589 2.26344,1.36138 0.17281,3.54275 -2.88308,3.00847 -2.87756,3.02418 1.30811,3.74238 3.59668,0.61727 3.78148,1.7188 1.09232,6.51016 -0.53357,0.95069 -0.10022,1.48741 1.20063,1.48741 1.1195,0 2.37127,-0.87799 2.78172,-1.95121 0.56687,-1.4822 1.4305,-1.8028 3.59226,-1.3337 l 2.846,0.61761 -2.75013,-4.77032 c -3.87913,-6.72871 -3.6798,-9.37001 0.70703,-9.37001 4.68059,0 5.43997,-1.94755 2.6836,-6.88214 -2.85716,-5.11511 -1.89724,-7.39044 4.2058,-9.96932 2.60845,-1.1022 5.69592,-3.26437 6.86101,-4.8048 l 2.11833,-2.80076 -4.54149,0.64666 c -2.49782,0.35568 -6.32601,1.23642 -8.50705,1.95717 -8.69346,2.8729 -11.57195,0.68568 -6.26294,-4.75896 1.50232,-1.5407 4.03134,-4.18225 5.62004,-5.87012 1.58874,-1.68788 4.65836,-3.69457 6.8214,-4.45932 5.30746,-1.87649 4.95547,-3.21004 -0.84723,-3.21004 -4.72868,0 -6.65206,-1.90005 -3.34008,-3.29953 0.95153,-0.40206 0.68044,-1.40092 -0.79925,-2.94493 -2.12578,-2.21825 -2.08291,-2.4502 0.84673,-4.58235 1.69727,-1.2352 3.7702,-2.24583 4.60656,-2.24583 0.83638,0 3.59056,-1.18144 6.12035,-2.62542 5.57681,-3.18317 5.21938,-5.30936 -1.9256,-11.4549 -4.86765,-4.18677 -5.67432,-5.97006 -3.67492,-8.12424 0.85386,-0.91998 1.9982,-0.71673 4.97367,0.88352 l 3.86466,2.07843 -3.62887,-4.2337 c -1.99588,-2.32853 -3.62888,-4.72201 -3.62888,-5.31883 0,-1.44173 4.44376,-1.38766 6.74129,0.0819 1.50141,0.96041 1.66457,0.75362 0.92101,-1.16718 -3.4225,-8.84147 -1.97492,-14.56876 2.18307,-8.6373 0.99006,1.41233 2.3963,2.35774 3.12501,2.10098 2.00252,-0.70564 0.85311,-3.82027 -2.75675,-7.47008 -3.5791,-3.61876 -6.11648,-7.75586 -6.11648,-9.97267 0,-1.29072 0.36409,-1.28414 3.36628,0.0607 5.0017,2.24066 5.35514,1.85587 1.4833,-1.6148 -3.26827,-2.92968 -4.73846,-7.18488 -2.45953,-7.11881 0.56334,0.0173 2.21724,0.64661 3.67534,1.40064 3.86225,1.99727 4.63648,1.73603 5.63456,-1.90134 0.61174,-2.22961 0.23966,-3.95914 -1.16792,-5.42783 -1.13615,-1.18555 -2.28058,-3.80991 -2.54316,-5.83188 -0.41658,-3.20838 -0.12965,-3.65326 2.25406,-3.49528 1.92196,0.12737 2.80308,-0.42604 2.97311,-1.86748 1.40105,-11.878 4.73843,-17.17515 5.64859,-8.9655 0.31947,2.88201 1.09467,3.9736 3.0729,4.3273 1.45504,0.26014 2.64555,1.27008 2.64555,2.24429 0,0.9742 0.71289,2.55176 1.58418,3.50566 1.29085,1.41317 1.01029,2.28542 -1.5147,4.70989 -3.46779,3.32969 -3.05003,4.45834 1.0895,2.94363 1.51725,-0.55517 3.41362,-1.00939 4.21415,-1.00939 1.8425,0 1.91576,3.4303 0.0898,4.2019 -0.75117,0.3174 -1.36573,1.22414 -1.36573,2.01498 0,0.79079 -1.0262,2.91639 -2.28043,4.7235 -2.21451,3.19072 -2.19377,3.33042 0.71841,4.8323 2.36787,1.22116 2.64658,1.78748 1.32445,2.69142 -1.32208,0.90395 -0.75478,1.14484 2.69592,1.14484 4.78245,0 5.5438,0.97299 2.2317,2.85238 -2.37691,1.34873 -6.05571,5.8406 -6.05571,7.39414 0,0.57224 1.46366,0.34595 3.41426,-0.52792 4.79796,-2.1494 4.48738,-0.44829 -1.36987,7.50241 -5.80257,7.87645 -6.14052,9.57869 -1.48799,7.4944 1.80831,-0.81011 3.57885,-1.13491 3.93452,-0.72185 1.3858,1.60938 -0.84802,6.92103 -3.28577,7.81303 -1.41401,0.51738 -2.57085,1.7877 -2.57085,2.82289 0,1.78747 0.22983,1.7623 4.56748,-0.49974 5.29111,-2.75925 7.10826,-2.9583 8.26078,-0.90492 1.49391,2.66174 0.91398,7.86003 -0.87818,7.87218 -1.82673,0.0114 -7.85293,5.80254 -7.85293,7.5453 0,0.63068 0.94999,0.77936 2.38998,0.37403 6.25613,-1.76089 7.17008,-1.66472 7.17008,0.75455 0,3.56242 -1.37675,5.32092 -4.16586,5.32092 -2.38095,0 -7.34782,3.64437 -6.11538,4.48701 0.31993,0.21876 2.5565,-0.0732 4.9701,-0.64821 2.41357,-0.57526 4.71191,-0.8247 5.10731,-0.55437 0.39544,0.27039 -0.75777,2.47826 -2.56274,4.90645 -1.805,2.42819 -3.3037,4.83508 -3.33049,5.34866 -0.028,0.51356 2.4096,0.93374 5.41422,0.93374 4.51539,0 5.46291,0.31744 5.46291,1.83033 0,1.04958 -2.0378,2.76926 -4.77734,4.03147 -2.62754,1.21066 -5.30545,2.84642 -5.95094,3.635 -0.98513,1.20353 -0.49177,1.33147 3.07127,0.79641 5.67949,-0.85287 6.80289,1.241 3.01863,5.62623 -1.58022,1.83115 -2.87314,3.72556 -2.87314,4.20976 0,0.98706 5.45488,1.18222 8.76556,0.31361 3.02883,-0.79467 2.72042,-5.21365 -0.63521,-9.10217 -3.04623,-3.53 -1.86615,-5.06827 2.25282,-2.93658 1.4252,0.73755 2.92871,1.3544 3.34117,1.37071 1.1686,0.0461 4.37912,-6.57925 3.48447,-7.19092 -0.43803,-0.2995 -0.16901,-1.06139 0.59783,-1.69312 0.9556,-0.78718 0.89093,-1.90393 -0.20565,-3.54926 -1.31757,-1.97707 -1.18176,-2.83682 0.76933,-4.87282 2.33128,-2.43257 2.30118,-2.52012 -1.8789,-5.46873 -4.59209,-3.23931 -4.3111,-4.56347 0.78283,-3.68935 3.86165,0.66264 4.19092,-0.91004 1.21123,-5.78584 -1.92329,-3.14723 -1.87722,-3.31157 1.19705,-4.26925 2.96839,-0.92472 3.14906,-1.40714 2.52341,-6.73663 -0.4823,-4.10736 -0.028,-6.79837 1.59801,-9.45842 2.98419,-4.88318 4.82672,-3.05746 4.85533,4.81108 0.0107,3.4784 0.63913,5.89906 1.58244,6.11406 1.16341,0.26513 1.15114,0.88024 -0.0483,2.41221 -1.42688,1.82289 -1.27628,2.05633 1.32698,2.05633 2.84703,0 2.86576,0.0738 0.61454,2.42295 -2.21968,2.31619 -2.19651,2.51431 0.52577,4.49557 3.32148,2.41728 3.6374,4.54368 0.9052,6.09399 -2.17179,1.23232 -5.27782,6.61306 -3.79066,6.56674 0.52429,-0.0172 2.14621,-0.64662 3.6043,-1.40065 5.86591,-3.03344 6.57719,-0.12158 1.54952,6.34347 l -3.31103,4.25748 3.31103,0.56816 c 4.54004,0.77909 4.16342,2.19135 -1.6744,6.27886 -4.88293,3.41895 -4.93839,3.53965 -2.69999,5.87541 2.79692,2.9185 7.37351,3.08877 12.26796,0.4565 3.84587,-2.06832 6.39111,-1.73678 6.26539,0.8161 -0.0927,1.88136 -13.08581,8.901 -14.98783,8.0973 -0.72772,-0.3075 -1.3231,-0.11438 -1.3231,0.42977 0,0.57762 3.16339,0.98886 7.60647,0.98886 7.10705,0 7.57784,0.13801 7.17007,2.10097 -0.33407,1.60832 -2.03756,2.44727 -7.26504,3.57793 -7.33851,1.58727 -9.12925,3.91505 -3.41431,4.43816 5.87198,0.53738 6.21932,1.76716 1.60738,5.69104 -3.90487,3.3222 -4.11332,3.79439 -2.02744,4.59248 1.42168,0.54392 3.59115,0.5604 5.58424,0.0421 1.79266,-0.46599 3.82238,-0.60931 4.51049,-0.31859 2.30566,0.97427 1.31646,4.99762 -1.48031,6.02103 -3.36636,1.23177 -3.59654,3.74016 -0.34142,3.72069 3.17625,-0.0188 5.12143,-1.0732 5.12143,-2.77575 0,-0.82986 2.88759,-2.09916 7.17006,-3.15167 3.94353,-0.96929 7.17009,-2.17439 7.17009,-2.67814 0,-0.50362 -1.54871,-1.74868 -3.44161,-2.76668 -3.72411,-2.00287 -7.48414,-6.33341 -7.48414,-8.61981 0,-1.14259 0.69198,-1.24397 3.50325,-0.51325 6.08986,1.58313 6.30845,1.02395 1.33935,-3.4255 -6.34078,-5.67767 -6.35846,-7.28149 -0.0726,-6.58405 7.55973,0.83877 8.88728,-0.79215 8.88728,-10.91829 0,-7.57759 1.09819,-14.42351 3.51713,-21.92492 1.48078,-4.59218 2.63538,-0.50321 2.82483,10.00371 0.10799,5.98548 0.37886,11.93309 0.60215,13.21702 0.22339,1.28395 -0.07,4.10964 -0.65185,6.27938 l -1.05785,3.94496 5.38887,0.58914 c 2.96382,0.32405 6.24171,0.95295 7.28425,1.39758 2.76321,1.17853 -0.21328,4.05576 -4.56691,4.41451 -2.87334,0.23674 -3.60278,0.91478 -4.33023,4.0251 -1.09568,4.68478 -0.57933,5.23013 7.07582,7.47359 4.66047,1.3659 6.47928,1.5434 7.23589,0.70646 0.58913,-0.6518 4.45218,-1.15288 9.26275,-1.20146 10.97633,-0.11084 12.28398,-1.15808 7.05897,-5.65341 -4.8008,-4.13036 -5.25431,-6.10192 -1.40344,-6.10192 3.38574,0 3.38287,-0.0722 -0.16922,-4.1884 -3.35899,-3.89241 -2.64654,-4.96694 2.27634,-3.43336 5.44287,1.69553 6.09702,1.32947 3.93776,-2.20384 -1.77704,-2.90784 -1.77321,-3.35142 0.0329,-3.82526 1.79524,-0.47101 1.80484,-0.92576 0.0794,-3.74952 -1.89357,-3.09858 -1.84563,-3.24421 1.34153,-4.07272 3.02156,-0.78542 3.33994,-1.44395 3.70781,-7.66792 0.31214,-5.28127 0.85821,-6.80873 2.43411,-6.80873 1.389,0 2.33145,1.43274 2.97923,4.52883 1.28997,6.16561 1.98451,7.14316 5.07536,7.14316 1.46326,0 2.93486,0.52524 3.27019,1.16719 0.33533,0.64198 1.03152,0.90135 1.54705,0.57638 0.51556,-0.32497 -0.62948,-2.16942 -2.54448,-4.09881 -4.1344,-4.16538 -4.60681,-6.57169 -1.09181,-5.56152 4.55383,1.30871 8.53579,1.59359 8.53579,0.61065 0,-0.54311 -0.56528,-1.22637 -1.25616,-1.5183 -1.8193,-0.76874 -8.46546,-9.11786 -7.68362,-9.65238 0.36312,-0.24825 2.19417,0.23582 4.06908,1.07577 4.98087,2.23133 5.17631,1.87972 0.66847,-1.20233 -2.34677,-1.60452 -3.99212,-3.72119 -3.99212,-5.1357 0,-2.7485 1.09599,-2.98196 4.86043,-1.03527 4.72059,2.44117 5.08954,1.51361 0.74391,-1.8703 -5.93567,-4.62214 -5.31889,-6.56363 1.31406,-4.13657 3.16496,1.15804 3.22278,0.94639 0.663,-2.42704 -2.21575,-2.92001 -1.5247,-4.54446 1.58603,-3.72831 1.54698,0.40583 1.80991,0.13009 1.05196,-1.10357 -0.55583,-0.90457 -1.31217,-2.59614 -1.68079,-3.75907 -0.54806,-1.72914 -0.22396,-1.99735 1.77845,-1.47196 2.00637,0.52638 2.25453,0.31797 1.37377,-1.15374 -2.33545,-3.90261 -2.48801,-5.14512 -0.59805,-4.8707 1.2268,0.17806 1.76841,-0.45793 1.5563,-1.82774 -0.20691,-1.33725 0.4135,-2.10098 1.70717,-2.10098 1.59311,0 2.03248,-1.32528 2.03248,-6.1308 0,-6.2241 1.81022,-10.24257 4.16571,-9.24724 0.71344,0.30146 1.29713,3.80083 1.29713,7.77635 0,4.45874 0.64106,7.66645 1.67304,8.372 1.32014,0.9026 1.3036,1.54819 -0.0786,3.06122 -1.22495,1.34107 -1.32566,2.26806 -0.33515,3.08411 0.95275,0.78487 0.97841,2.21045 0.0786,4.35601 -1.76501,4.20752 -1.70407,4.60228 0.71066,4.60228 2.60147,0 2.60147,3.4249 0,6.53632 -3.11037,3.72001 -2.38788,4.13362 2.64031,1.51146 4.84558,-2.52694 7.60261,-3.09442 7.60261,-1.56486 0,1.09657 -5.235,7.42802 -7.9578,9.62442 -1.31235,1.05867 -1.47008,1.63408 -0.44811,1.63408 2.25367,0 1.94851,2.84068 -0.5042,4.69366 -3.21404,2.4282 -1.21843,4.67496 3.57078,4.02009 4.58863,-0.62743 4.67023,-0.45615 1.92504,4.03605 -2.52712,4.13526 -2.61292,3.73915 0.94755,4.37577 2.97814,0.53248 2.98034,0.54798 0.34142,2.58587 l -2.65473,2.05014 4.09715,-0.58696 c 2.2534,-0.3228 5.4799,-0.85616 7.17,-1.18522 4.2036,-0.81837 4.1128,1.79478 -0.1642,4.71885 -2.9875,2.04258 -3.0664,2.33168 -1.0243,3.75134 2.0429,1.4202 1.9355,1.70289 -1.3992,3.68449 -2.51,1.49141 -3.2455,2.54183 -2.411,3.44285 2.0789,2.24444 1.359,5.12069 -2.1714,8.67782 -1.87796,1.89198 -3.41442,3.62074 -3.41442,3.84162 0,0.22088 3.84112,-1.26442 8.53582,-3.30079 4.6946,-2.03632 9.304,-3.70641 10.2429,-3.71127 4.1491,-0.0217 0.2717,9.35102 -5.1614,12.47657 -4.4896,2.58299 -5.0019,3.38848 -2.1548,3.38848 2.7898,0 3.5089,2.09895 2.121,6.18957 -1.7347,5.11173 -1.7036,5.1748 2.4637,4.98701 5.6247,-0.25364 6.0117,-0.11438 4.6305,1.66259 -0.6986,0.89881 -1.4885,3.94511 -1.7552,6.76977 l -0.4852,5.13562 5.3825,0.46688 c 4.6674,0.40491 5.53,0.8582 6.4921,3.41151 0.7909,2.09849 2.2855,3.22469 5.2019,3.91988 4.4917,1.07055 4.4509,1.10662 4.1391,-3.65053 l -0.2177,-3.32242 6.7859,-0.0696 c 9.3244,-0.0963 10.1701,-0.65623 6.8321,-4.52432 -2.9642,-3.43485 -2.6125,-6.03541 0.8162,-6.03541 1.5258,0 1.8591,-0.67683 1.2906,-2.62016 -0.515,-1.76098 -0.056,-3.02319 1.4,-3.8494 1.4295,-0.81115 2.1661,-2.75959 2.1661,-5.72866 0,-2.47452 0.6146,-4.75892 1.366,-5.07641 0.7511,-0.31738 1.3658,-2.0229 1.3658,-3.79007 0,-1.76718 0.4915,-3.2131 1.0925,-3.2131 3.0046,0 4.3719,2.74754 4.3912,8.82401 0.025,7.90925 1.4577,10.1732 4.9338,7.79706 1.9974,-1.36526 2.0577,-1.80503 0.4309,-3.14504 -1.6567,-1.36502 -1.4292,-1.80976 1.8381,-3.59088 3.4074,-1.85769 3.5549,-2.19045 1.7103,-3.85813 -3.4161,-3.0887 -2.5519,-4.15947 3.3575,-4.15947 3.0045,0 5.4628,-0.25795 5.4628,-0.57323 0,-0.31517 -1.3384,-2.2013 -2.9742,-4.19142 -1.636,-1.99005 -2.6112,-3.86663 -2.1673,-4.17016 0.4439,-0.30353 3.2778,0.42023 6.2972,1.60839 3.0195,1.18815 5.8827,1.89184 6.3624,1.56372 0.9925,-0.67843 -2.8745,-9.00294 -4.9926,-10.74773 -1.6797,-1.38401 -0.3876,-3.09853 2.3353,-3.09853 2.579,0 2.4868,-0.91372 -0.6633,-6.58189 -2.9104,-5.23709 -1.6505,-6.68963 4.0072,-4.61947 4.5211,1.65429 4.8648,0.36418 0.5754,-2.15848 l -3.8267,-2.25051 3.5439,-2.42291 c 2.9761,-2.03485 3.2356,-2.59777 1.6205,-3.51432 -2.8819,-1.63523 -2.3173,-3.66393 1.0198,-3.66393 2.7646,0 2.806,-0.10351 0.6828,-1.70759 -2.9663,-2.24114 -2.8518,-2.9612 0.4713,-2.9612 1.9854,0 2.7314,-0.62249 2.7314,-2.27927 0,-3.19136 2.4704,-3.89261 3.5314,-1.00243 0.4839,1.31846 2.0173,2.81339 3.4076,3.32204 2.0376,0.74556 2.4485,1.82688 2.1203,5.57794 -0.2236,2.55919 0.1758,4.65307 0.8891,4.65307 1.2665,0 0.9162,1.61617 -1.0624,4.90225 -0.6968,1.15745 -0.3436,1.63408 1.2109,1.63408 2.7637,0 2.7788,0.81236 0.053,2.87175 -1.7884,1.35112 -1.8525,1.93494 -0.3885,3.53772 1.5985,1.75007 1.9609,1.79111 4.1044,0.46486 3.3427,-2.06829 5.2547,-0.81224 5.2547,3.45213 0,3.11972 0.438,3.67993 2.8774,3.67993 1.9313,0 2.6316,0.4382 2.1298,1.33238 -0.4113,0.73279 0.1374,1.83471 1.2197,2.44873 2.4869,1.41115 2.4647,2.54793 -0.1155,5.93044 -1.8705,2.45241 -1.8497,2.87165 0.22,4.43539 2.138,1.61518 2.1364,1.84004 -0.025,3.47341 -1.9545,1.47668 -2.0517,2.13646 -0.6293,4.27113 1.3192,1.97943 1.3256,2.91551 0.029,4.33431 -1.6866,1.84641 -0.956,5.97511 1.4237,8.04505 0.7095,0.61739 0.8867,1.99148 0.3936,3.05361 -0.7328,1.57849 -0.01,2.18581 3.9843,3.32552 5.2462,1.49859 6.4203,4.00201 2.8324,6.03807 -3.8348,2.17584 -2.5123,3.69558 2.3809,2.73601 5.5317,-1.0847 5.1305,-1.12963 5.1305,0.5748 0,1.18596 1.6349,1.39401 9.1724,1.16715 9.0482,-0.27234 9.1893,-0.31693 10.4361,-3.30073 1.1931,-2.85464 1.5445,-2.99398 6.2581,-2.47861 3.5922,0.39273 5.4865,0.14042 6.748,-0.89902 1.8381,-1.51409 0.9152,-5.26974 -1.2949,-5.26974 -0.7004,0 -1.2736,-0.75628 -1.2736,-1.68075 0,-0.92436 -0.7683,-2.22509 -1.7072,-2.89029 -1.3753,-0.97448 -1.0492,-1.50986 1.6775,-2.7546 8.5125,-3.8858 11.484,-8.37637 4.7817,-7.22625 -3.6237,0.62181 -8.8492,-0.74332 -8.8492,-2.31175 0,-0.50815 1.5364,-1.3234 3.4142,-1.81153 1.8779,-0.48814 3.4144,-1.42711 3.4144,-2.08665 0,-0.65955 1.2097,-1.71571 2.6885,-2.34704 1.4786,-0.63145 3.2363,-2.51832 3.9059,-4.19315 1.0021,-2.50661 0.5939,-3.82047 -2.3087,-7.42894 -1.9394,-2.41108 -3.1395,-4.64809 -2.667,-4.9711 0.4724,-0.32303 2.8415,0.1135 5.2644,0.97025 6.0851,2.15152 7.1026,0.77609 6.0606,-8.19413 -0.7136,-6.14409 -0.5073,-7.32871 1.361,-7.81885 1.2111,-0.31778 2.5204,-0.35993 2.9097,-0.0938 0.3893,0.26621 1.631,4.40391 2.7587,9.19487 1.1281,4.79094 2.5724,9.1421 3.2096,9.66925 0.6372,0.52712 1.3667,2.21899 1.621,3.75969 0.296,1.7935 1.5375,3.12397 3.4511,3.69828 1.6439,0.49333 3.2764,1.64887 3.6279,2.56783 1.339,3.50116 2.9495,1.44104 3.0954,-3.95999 0.084,-3.09469 0.5123,-5.87291 0.9526,-6.17386 0.44,-0.30098 2.9025,0.34112 5.4719,1.42684 2.5694,1.08571 4.9839,1.97404 5.3655,1.97404 0.3815,0 -0.1306,-2.62621 -1.1375,-5.83601 -2.206,-7.0302 -2.4079,-10.97168 -0.5615,-10.97168 2.3572,0 1.4967,-2.58627 -2.0486,-6.15827 -1.878,-1.89197 -3.4145,-3.78891 -3.4145,-4.21543 0,-0.42653 1.8101,-1.69042 4.0223,-2.80868 l 4.0221,-2.03315 -2.7787,-3.72401 c -1.9549,-2.61971 -2.3217,-3.91712 -1.2378,-4.37514 1.1085,-0.46835 1.14,-1.37221 0.1116,-3.21986 -1.6779,-3.01731 -0.8222,-4.42527 2.2066,-3.63062 1.7157,0.45012 1.9656,0.14291 1.2093,-1.48622 -0.5243,-1.12946 -0.3481,-2.55865 0.3916,-3.17598 0.74,-0.61731 2.0433,-2.90819 2.897,-5.09084 0.8537,-2.18268 2.0712,-3.96849 2.7058,-3.96849 1.4144,0 2.7943,3.31333 2.8195,6.76975 0,1.94108 0.6853,2.56784 2.7499,2.56784 3.322,0 3.4225,0.77758 0.4727,3.65683 -1.7847,1.7424 -1.9282,2.56671 -0.6827,3.93016 0.8667,0.94887 1.5758,2.7365 1.5758,3.97241 0,1.23597 0.9149,2.48725 2.0332,2.78067 1.617,0.4242 1.7442,1.05366 0.6209,3.07372 -1.1454,2.0598 -0.9881,2.70268 0.8318,3.39901 1.8138,0.69404 2.0629,1.69072 1.2979,5.19657 -0.5207,2.38581 -1.8098,5.75475 -2.8651,7.48656 -2.7166,4.45824 -2.4013,5.21925 1.4476,3.49496 3.8251,-1.71354 7.5596,-1.97889 7.5596,-0.53706 0,0.53401 -1.2292,2.61824 -2.7317,4.63158 -3.3684,4.51462 -3.3939,4.97697 -0.2104,3.81159 4.6457,-1.69987 7.9513,3.07041 3.7712,5.44226 -1.0456,0.59328 -2.2054,1.87475 -2.5776,2.84768 -0.5984,1.5644 -0.2952,1.6502 2.6209,0.74174 5.774,-1.79865 6.8516,0.35179 2.7134,5.41409 -1.9728,2.41349 -3.5871,4.59309 -3.5871,4.84342 0,0.25043 2.7655,0.17174 6.1456,-0.17474 7.5371,-0.77276 7.9526,0.36153 1.9549,5.33624 -2.3048,1.91192 -3.3569,3.25747 -2.3377,2.99 1.0192,-0.26736 3.6347,0.78525 5.8122,2.33918 4.118,2.93875 8.911,3.7665 8.911,1.53899 0,-0.70747 -0.9516,-1.82627 -2.1146,-2.48615 -1.1631,-0.65987 -1.9309,-2.07703 -1.7064,-3.14912 0.3335,-1.59188 1.2429,-1.90373 4.9616,-1.70144 l 4.5532,0.24767 -2.8284,-2.45838 c -3.1376,-2.72726 -2.6969,-4.10644 1.3121,-4.10644 2.1283,0 2.6509,-0.65623 2.6509,-3.32852 0,-2.55194 -0.9558,-3.87831 -4.0971,-5.68555 -2.2535,-1.29642 -4.0972,-3.21269 -4.0972,-4.25838 0,-1.63095 0.6062,-1.81837 4.2636,-1.3182 3.7214,0.50886 4.0426,0.40086 2.5257,-0.84888 -1.3008,-1.07151 -1.365,-1.95263 -0.255,-3.501 0.8159,-1.13803 1.8939,-5.01047 2.3952,-8.60545 1.0378,-7.43908 2.9248,-10.84593 4.8538,-8.76343 0.6588,0.71135 1.2073,2.45343 1.2189,3.87137 0,1.4179 1.2992,4.43735 2.8616,6.70984 1.5623,2.27252 2.6378,5.19847 2.3901,6.50206 -0.3142,1.65158 1.1858,3.78307 4.9468,7.02998 5.3018,4.57702 7.7591,5.64722 5.0655,2.20595 -1.647,-2.10423 -1.7008,-12.26131 -0.066,-12.95107 1.9105,-0.80728 6.674,1.41243 6.7206,3.13166 0.039,1.44134 0.2378,1.42547 1.9925,-0.15887 2.9765,-2.68814 3.9867,-9.6589 2.3092,-15.93504 -1.1293,-4.22402 -1.0899,-8.23945 0.1558,-15.92014 1.6951,-10.45275 3.489,-12.86174 5.2341,-7.02828 0.5336,1.78364 1.6458,3.39701 2.4715,3.58522 1.0104,0.23023 1.2079,2.29992 0.6046,6.32795 -0.9397,6.26988 -0.316,6.99412 3.8194,4.43528 3.7953,-2.34819 4.369,-0.93147 1.2928,3.19136 -1.5366,2.05945 -2.2391,4.05885 -1.5899,4.52585 1.0682,0.76846 2.496,5.64699 5.5484,18.9583 0.6886,3.00249 2.2924,5.82485 3.9569,6.96282 l 2.799,1.91373 3.7769,-1.92794 c 5.1129,-2.61003 4.975,-5.30116 -0.3038,-5.92633 -7.2809,-0.86228 -5.8615,-5.55509 1.6906,-5.59023 2.0688,-0.008 3.0728,-0.57724 3.0728,-1.73708 0,-2.26987 -4.2291,-4.81354 -8.003,-4.81354 -4.5146,0 -4.8513,-2.15095 -0.9527,-6.07922 2.9199,-2.94178 3.4928,-4.58611 3.4928,-10.0249 0,-5.39941 0.3484,-6.41449 2.0487,-5.96843 1.548,0.40616 2.0486,-0.16635 2.0486,-2.3434 0,-2.4537 0.4192,-2.80593 2.8273,-2.37538 2.4838,0.44407 2.7803,0.13397 2.4417,-2.55397 -0.2119,-1.68267 0.6165,-4.10511 1.8412,-5.38318 1.2249,-1.27804 2.7382,-5.19306 3.3627,-8.69997 1.6622,-9.33187 5.8468,-8.79973 5.8971,0.7499 0,2.85211 0.4846,3.48905 2.4087,3.26816 1.8449,-0.21178 2.3755,0.36455 2.3265,2.52689 -0.035,1.5407 -0.521,3.71187 -1.0804,4.82486 -0.8624,1.71629 -0.5936,1.94787 1.7708,1.52517 3.6817,-0.65829 3.7034,1.8469 0.056,6.49961 -3.2376,4.12988 -3.2959,4.4249 -0.8734,4.4249 1.2391,0 2.2627,1.94406 3.073,5.83601 0.8733,4.19586 1.7905,5.83599 3.2633,5.83599 1.2938,0 2.2011,-1.07137 2.4626,-2.90746 0.2995,-2.10262 1.4331,-3.2249 4.0953,-4.05422 l 3.6811,-1.14672 -3.7989,-1.3609 -3.799,-1.36089 3.118,-2.98873 c 2.5833,-2.47609 3.067,-4.02985 2.8207,-9.0582 -0.5446,-11.11342 -0.1389,-26.17211 0.7679,-28.48985 1.389,-3.55087 3.5813,-3.16631 4.0505,0.71053 0.2772,2.29057 1.1038,3.5016 2.3901,3.5016 2.3313,0 2.502,1.71598 0.5245,5.27188 -0.7926,1.42571 -1.0868,3.55783 -0.6536,4.73805 0.7579,2.06452 0.9175,2.08766 4.2154,0.6103 5.0608,-2.26711 5.5062,-0.97667 1.3404,3.88342 l -3.7,4.31668 3.1925,-0.30603 c 2.5929,-0.24855 3.2129,0.1324 3.3005,2.02839 0.1915,4.15875 0.535,4.66881 3.1398,4.66881 1.4105,0 3.4175,0.87782 4.4594,1.9507 1.3971,1.43851 2.9647,1.85358 5.9709,1.58079 l 4.0766,-0.36991 -3.7558,-1.09081 c -2.0656,-0.59992 -3.7558,-1.48701 -3.7558,-1.97129 0,-0.48425 -0.3731,-1.54514 -0.8292,-2.3575 -0.5774,-1.02934 -0.037,-1.47699 1.7814,-1.47699 2.824,0 14.4788,-4.72152 16.1105,-6.52637 2.1389,-2.36633 -1.7546,-3.13942 -7.8264,-1.55401 -7.8891,2.05998 -10.1252,1.94788 -11.1071,-0.55692 -1.2783,-3.26125 -1.1717,-3.38767 4.1264,-4.90112 2.7427,-0.78358 7.5383,-2.99521 10.6566,-4.9148 3.1183,-1.91958 7.4811,-4.45936 9.6945,-5.64391 2.4231,-1.29661 3.0232,-1.94538 1.5082,-1.63014 -8.8435,1.84006 -8.8318,1.84264 -10.4646,-2.30333 -1.0001,-2.53919 -2.4777,-4.09212 -4.184,-4.3972 -1.4508,-0.25938 -2.6378,-0.83201 -2.6378,-1.27247 0,-0.44047 -1.8437,-1.45273 -4.0971,-2.24948 -6.7608,-2.39036 -5.2145,-3.97058 4.4386,-4.53615 4.6948,-0.27507 9.1505,-0.5725 9.9015,-0.66103 0.7511,-0.0886 2.4413,0.1441 3.7556,0.51704 4.1915,1.189 2.6193,-1.17573 -3.2847,-4.94112 -3.2565,-2.07674 -5.7792,-4.57846 -5.9192,-5.86976 -0.2103,-1.92814 -0.9448,-2.25042 -5.1364,-2.25042 -2.6905,0 -5.3069,-0.2835 -5.814,-0.62996 -1.5758,-1.07651 0.7003,-4.38147 3.4246,-4.97266 1.4258,-0.30936 4.4672,-1.76001 6.7588,-3.2237 3.1489,-2.01098 4.1669,-3.48027 4.1669,-6.01367 0,-2.34124 0.8239,-3.70431 2.7313,-4.51878 3.4656,-1.47973 3.4353,-2.41886 -0.1619,-5.03684 l -2.8935,-2.10576 4.6008,-0.83738 c 3.477,-0.6329 4.4885,-1.27353 4.1416,-2.62326 -0.2521,-0.98219 -0.4171,-6.59856 -0.3665,-12.48081 0.081,-9.43358 0.4168,-10.91731 2.8486,-12.57983 l 2.7566,-1.8848 2.9823,2.03895 c 2.8111,1.92202 2.8975,2.40251 1.503,8.3779 -0.8134,3.48641 -1.9376,7.11675 -2.4983,8.06738 -0.9669,1.63952 -0.8053,1.65276 3.1395,0.25807 3.5657,-1.26073 4.3868,-1.28274 5.757,-0.15409 1.1918,0.98196 1.2085,1.81358 0.064,3.27366 -1.3967,1.78435 -1.2374,1.90666 1.8046,1.38466 4.9335,-0.84656 5.6137,1.02132 1.662,4.56359 -1.9193,1.72059 -3.4899,3.40382 -3.4899,3.74055 0,0.33668 2.0813,0.61214 4.6251,0.61214 3.9519,0 4.7349,0.3737 5.38,2.56786 0.4153,1.41232 1.1622,3.68987 1.6592,5.06131 0.7771,2.1436 -0.1431,3.20938 -6.5568,7.59455 -7.0746,4.837 -7.4168,5.28795 -6.6093,8.71162 0.7015,2.9752 1.4573,3.65912 4.2944,3.88648 2.2829,0.18287 4.5433,-0.52493 6.7091,-2.10096 5.8512,-4.25832 7.3288,-3.25745 6.6033,4.47263 -0.3537,3.76721 -1.1478,7.40798 -1.7648,8.09056 -0.6169,0.68257 -1.2586,2.43159 -1.4262,3.8867 -0.3352,2.91262 -4.0177,7.31851 -6.117,7.31851 -0.7338,0 -1.3341,1.12244 -1.3341,2.49432 0,1.37189 -0.9353,3.20088 -2.0781,4.06442 -1.8949,1.4315 -1.5774,1.7967 3.5951,4.13713 3.1204,1.4118 8.4602,2.83952 11.866,3.17261 3.406,0.33311 6.4161,1.06394 6.6893,1.62408 0.273,0.56015 -1.6731,2.63799 -4.3249,4.61741 -6.4586,4.82089 -6.429,7.09524 0.049,3.71743 2.6784,-1.39673 5.2433,-2.28415 5.6997,-1.97199 1.7506,1.19684 -3.166,9.42845 -6.1801,10.3473 -3.4784,1.06037 -3.9801,3.08787 -0.9599,3.88026 1.2153,0.31879 4.5395,-0.84532 8.0829,-2.83059 3.3103,-1.85462 6.6955,-3.37206 7.5222,-3.37206 3.7208,0 -5.3034,13.92387 -9.5121,14.67631 -1.4116,0.2524 -3.5314,1.46548 -4.7103,2.69576 -1.1791,1.23029 -3.3084,2.23689 -4.732,2.23689 -4.4998,0 -6.9448,1.07406 -9.1836,4.03436 l -2.1741,2.87432 3.5421,-1.58682 c 3.4185,-1.53147 7.7353,-2.1306 7.7353,-1.07357 0,0.28228 -0.9671,1.79199 -2.1491,3.35492 -1.1824,1.56293 -1.8926,3.01722 -1.5789,3.23175 0.3139,0.21454 3.0692,-0.21264 6.1231,-0.94933 6.4614,-1.55866 7.165,-1.28446 7.165,2.79188 0,2.12143 -1.6299,4.43855 -5.4414,7.7353 -2.9928,2.58862 -4.9325,4.92168 -4.3104,5.18453 1.5131,0.63925 10.8906,-1.1749 14.5518,-2.81506 4.8515,-2.17329 4.8165,-0.50657 -0.1179,5.6305 -2.5753,3.20348 -4.6825,6.31486 -4.6825,6.91419 0,2.06186 4.0204,1.08505 7.0446,-1.71165 1.666,-1.54068 3.8139,-2.80127 4.7729,-2.80127 3.1985,0 5.0516,-3.71067 3.0993,-6.20503 -1.2871,-1.64427 -1.3475,-2.51213 -0.2283,-3.27728 1.119,-0.76511 0.9557,-1.6319 -0.6175,-3.27319 -1.9646,-2.05003 -1.94,-2.38319 0.3009,-4.0761 1.3419,-1.01397 3.5741,-1.84361 4.9599,-1.84361 3.3209,0 3.2291,-0.28072 -1.5773,-4.81696 -6.4527,-6.09029 -5.1814,-7.47178 4.5313,-4.92357 1.6522,0.43347 2.0348,-0.30303 1.9582,-3.76768 -0.052,-2.36856 -0.612,-4.52486 -1.2438,-4.79182 -2.1328,-0.90132 -1.1674,-2.11093 1.9244,-2.41115 3.3472,-0.32505 4.4394,-2.96622 6.012,-14.53822 0.8323,-6.12299 2.6252,-7.61845 3.9176,-3.26817 0.4197,1.41232 1.5895,3.67277 2.5994,5.0232 1.0103,1.35044 1.527,3.56252 1.1487,4.91572 -0.5377,1.92337 -0.2353,2.3416 1.3855,1.91632 3.008,-0.78923 3.609,0.47721 2.3899,5.03563 -0.7733,2.89063 -0.6606,3.7493 0.3963,3.02662 2.026,-1.38527 5.0264,-1.26927 5.0264,0.19437 0,0.66175 -1.2291,2.85152 -2.7314,4.86622 -3.3821,4.53551 -3.4174,4.37561 0.6884,3.09644 4.9992,-1.55728 5.3593,-0.55952 1.6288,4.51423 -5.5725,7.57949 -5.7999,8.73011 -1.7263,8.73011 3.8098,0 4.5215,1.62707 2.0774,4.74948 -0.7859,1.004 -1.0559,2.23809 -0.6001,2.74242 1.3249,1.46561 6.126,-0.77272 6.126,-2.85596 0,-1.00906 0.548,-1.83465 1.2174,-1.83465 1.4192,0 5.5974,6.75637 5.6415,9.12307 0.025,1.28952 0.5615,1.14453 2.6632,-0.71924 3.8938,-3.45293 4.6067,-8.29121 2.1692,-14.7228 -3.1058,-8.19457 -0.8932,-10.78321 5.6337,-6.59091 1.7387,1.11666 3.161,1.5781 3.161,1.02544 0,-0.55267 3.5456,-1.28616 7.8789,-1.63003 9.0281,-0.71639 16.0543,-3.58079 12.607,-5.13959 -1.1268,-0.50942 -3.3668,-0.93275 -4.9779,-0.94058 -4.7017,-0.023 -20.4945,-3.63245 -22.2612,-5.08784 -2.1274,-1.75261 0.2645,-2.58239 13.5817,-4.71226 10.3437,-1.65421 21.8518,-5.38842 21.8518,-7.09056 0,-1.76198 -4.066,-1.96609 -18.2975,-0.91847 -15.1357,1.11419 -21.3085,0.69089 -21.3085,-1.46114 0,-1.70006 2.9375,-5.28005 5.114,-6.2326 1.5767,-0.68987 12.2894,-9.44 21.2455,-17.35296 2.1039,-1.85875 5.945,-4.12493 8.536,-5.03598 5.4326,-1.91028 5.3025,-1.63654 2.7554,-5.80487 l -1.9553,-3.19937 -11.3607,-0.27222 c -13.092,-0.31376 -15.0557,-1.86924 -6.0283,-4.77547 2.9328,-0.94412 9.693,-4.09886 15.0228,-7.01053 l 9.6917,-5.29393 -9.5599,-0.46686 c -9.0107,-0.44006 -9.5602,-0.59657 -9.5602,-2.72348 0,-2.26511 1.4334,-2.84315 10.3567,-4.17678 4.2916,-0.6414 16.275,-7.67251 16.275,-9.54921 0,-2.25576 -3.1073,-2.35798 -11.5207,-0.37892 -11.1101,2.61339 -12.5228,2.50946 -9.2374,-0.67962 1.455,-1.41231 3.0974,-3.61831 3.6498,-4.90225 0.5525,-1.28391 3.0915,-4.92379 5.6421,-8.08866 2.5506,-3.16486 4.6376,-6.00115 4.6376,-6.30286 0,-0.30177 -2.3048,-0.55504 -5.1214,-0.5629 -6.3999,-0.0173 -9.272,-1.14409 -7.6704,-3.00799 1.7988,-2.09379 22.131,-14.71914 23.704,-14.71914 3.4008,0 0.5832,-8.61851 -4.3276,-13.23779 -1.3642,-1.28334 -1.0312,-2.37814 1.8473,-6.06942 4.1791,-5.359 4.5621,-6.38749 7.2442,-19.45123 1.1413,-5.55833 2.3098,-10.26664 2.5967,-10.46293 1.1774,-0.80485 4.937,2.82585 6.2816,6.06649 0.7921,1.90853 1.8277,7.33398 2.3013,12.0565 l 0.861,8.58644 3.896,-0.53277 c 4.6962,-0.64213 4.9018,0.2947 1.1647,5.30327 -3.5939,4.81653 -3.4548,5.19421 1.0243,2.77995 4.9258,-2.65497 5.3506,-1.21472 1.8864,6.3948 l -2.6467,5.81426 8.0623,4.85209 c 4.4344,2.66865 8.0624,5.31788 8.0624,5.8872 0,1.91544 -6.3794,3.4837 -11.4999,2.82696 -4.4741,-0.5739 -4.8888,-0.44214 -4.8888,1.55342 0,1.19928 -0.9368,4.63968 -2.082,7.64529 -1.145,3.00558 -1.7066,5.72007 -1.2481,6.03216 0.779,0.53017 1.8337,-0.2549 7.6612,-5.70257 2.2683,-2.12045 2.296,-2.12212 4.3953,-0.2663 2.7586,2.43869 2.7371,6.04628 -0.064,10.8334 -2.1166,3.61619 -2.1137,3.92543 0.044,4.75109 1.7585,0.6729 2.1041,1.62653 1.4512,4.00592 -0.6488,2.36478 -0.1473,3.77834 2.0638,5.82357 3.7193,3.43952 2.6258,5.33431 -3.7004,6.41251 -6.1042,1.0403 -10.6216,5.41767 -7.1556,6.93366 1.1266,0.4928 4.3318,0.90245 7.122,0.91034 8.602,0.0244 9.4457,3.48785 3.2442,13.32035 -2.4533,3.88982 -2.3859,3.95376 2.5439,2.41794 3.6827,-1.14718 3.924,-1.54801 3.5004,-5.817 -0.2296,-2.31207 0.1408,-2.62572 2.582,-2.18918 2.6406,0.47206 2.785,0.2312 1.9653,-3.27392 -0.8796,-3.76083 -0.8622,-3.77957 2.893,-3.13518 3.7016,0.63519 3.765,0.57678 3.131,-2.89808 -0.3901,-2.13882 0.1704,-4.65337 1.4113,-6.33565 1.1319,-1.53411 2.5834,-6.33257 3.2253,-10.66326 0.6422,-4.33067 1.4729,-8.08278 1.8459,-8.33797 1.6076,-1.09899 2.7732,1.34791 3.4104,7.1594 0.578,5.27308 1.0491,6.18527 3.0729,5.95295 2.0101,-0.23078 2.39,0.46525 2.39,4.38026 0,2.56002 -0.6147,4.9143 -1.3658,5.2317 -2.5896,1.09428 -1.357,2.07432 2.0486,1.62919 4.1459,-0.54187 4.2201,0.16943 0.6835,6.53119 -3.5698,6.42162 -3.5646,7.61696 0.027,6.30257 4.0719,-1.48998 5.4348,-0.38366 5.4348,4.41208 0,4.13819 0.09,4.23487 2.5627,2.70586 2.3467,-1.45208 2.6341,-1.45782 3.414,-0.0684 0.4685,0.83454 0.8519,3.78042 0.8519,6.54638 0,4.98083 0.066,5.06405 7.1701,8.67877 7.8365,3.98903 13.2438,6.10884 14.0958,5.52613 0.3008,-0.20546 -1.5676,-2.65556 -4.1519,-5.44474 -2.5842,-2.78919 -6.6581,-8.7718 -9.0532,-13.29475 -4.95,-9.3476 -4.3593,-11.13836 2.8349,-8.59477 2.4097,0.85194 4.674,1.34859 5.0322,1.10371 0.3582,-0.2449 -0.644,-2.18114 -2.2273,-4.30279 -3.4052,-4.56379 -2.7371,-5.95999 2.2336,-4.66787 l 3.5459,0.92179 -0.9269,-3.9922 c -0.51,-2.19568 -2.4345,-6.24896 -4.2771,-9.00725 -5.1091,-7.64769 -3.8684,-12.69187 2.1985,-8.93808 2.5402,1.57172 2.6455,1.55551 2.6455,-0.40644 0,-1.12381 -1.5365,-4.11632 -3.4144,-6.65002 -3.4426,-4.64493 -4.3632,-9.66918 -2.1996,-12.0039 0.9665,-1.04266 1.8052,-0.98263 4.7592,0.34081 3.7635,1.6859 4.3659,1.37638 2.4087,-1.23748 -0.6475,-0.86495 -1.56,-4.19888 -2.0278,-7.40868 -0.6988,-4.79925 -0.4897,-5.83598 1.1777,-5.83598 2.4532,0 2.472,-0.41852 0.4357,-9.5659 -1.6767,-7.53186 -1.1901,-9.20784 2.1269,-7.3257 2.5344,1.43815 3.0749,0.18325 4.2899,-9.95925 0.8178,-6.82574 2.2499,-9.70872 4.1704,-8.3956 0.3405,0.23287 1.0077,3.86678 1.4824,8.07535 0.6018,5.33529 1.2965,7.35562 2.2945,6.67326 0.7869,-0.53828 1.9224,-0.97865 2.5236,-0.97865 1.8057,0 1.2319,6.36809 -0.8865,9.83447 -2.0787,3.40167 -0.4494,4.52501 3.0715,2.11767 2.3955,-1.63774 2.1575,1.91142 -0.4095,6.11215 -2.977,4.87091 -2.6233,5.53083 2.0729,3.8704 3.7728,-1.33388 4.1951,-1.32695 4.9858,0.0818 0.475,0.8466 -0.4133,3.60583 -1.974,6.13169 l -2.8379,4.59244 4.6809,-0.60039 c 4.3058,-0.5523 4.6808,-0.41531 4.6808,1.70954 0,1.27045 -1.8437,3.89615 -4.0971,5.83487 -2.2534,1.93871 -4.0974,3.72402 -4.0974,3.96735 0,0.24334 2.178,0.1631 4.8399,-0.17843 12.5229,-1.60624 13.9227,3.87517 3.1543,12.35086 -6.3575,5.00401 -4.3607,8.25713 2.1292,3.46909 1.7405,-1.2839 3.5549,-2.33439 4.0323,-2.33439 1.805,0 0.7668,5.29346 -1.6512,8.41766 -1.3854,1.7899 -2.9123,4.64084 -3.3937,6.33548 -0.9555,3.36458 -0.05,3.34408 5.5888,-0.12625 2.182,-1.3432 3.5179,-1.61118 4.5421,-0.91095 2.1197,1.44924 -1.9726,10.14728 -7.0551,14.99575 l -4.1587,3.96703 3.4066,-0.88552 c 1.8737,-0.48708 4.6489,-1.41594 6.1671,-2.06418 1.518,-0.64824 3.1197,-0.93283 3.559,-0.63242 0.4395,0.30045 0.1348,3.38956 -0.6773,6.86469 -1.1749,5.02845 -2.4406,7.08869 -6.1997,10.09128 -6.8548,5.47546 -6.2703,6.6276 2.2046,4.34372 3.8103,-1.02687 7.4234,-1.65769 8.029,-1.40177 0.6059,0.25589 0.8326,2.2577 0.5045,4.4485 -0.7917,5.28527 3.6995,9.31091 9.4777,8.49564 4.6283,-0.65307 6.8039,-4.72265 3.251,-6.08193 -1.2327,-0.47172 -2.2413,-1.61206 -2.2413,-2.53406 0,-0.92205 -1.2293,-2.43698 -2.7316,-3.36649 -4.1155,-2.54651 -3.5029,-5.74879 1.4342,-7.49422 2.2909,-0.81001 5.3639,-1.21268 6.8286,-0.89481 3.8723,0.84029 3.2806,-0.16808 -1.9354,-3.29922 -3.1016,-1.86196 -4.8681,-3.89693 -5.4273,-6.25208 -0.826,-3.48101 0.6911,-6.01999 2.4406,-4.08438 2.0943,2.31664 3.3924,0.79587 1.4796,-1.73317 -1.2544,-1.65851 -1.5571,-2.96879 -0.7629,-3.30434 0.7238,-0.30585 0.9489,-1.81179 0.4999,-3.34653 -0.5748,-1.96469 -0.094,-3.33553 1.6223,-4.63258 2.3406,-1.76852 2.3402,-1.91615 0,-3.69214 -2.3686,-1.78934 -2.3464,-1.87584 0.6756,-2.64013 2.9762,-0.75278 3.1376,-1.28723 3.4093,-11.29065 0.2273,-8.35602 0.7486,-10.81711 2.5526,-12.05078 1.7577,-1.20171 2.7993,-1.31791 4.632,-0.51676 2.4873,1.08718 2.8412,3.64776 1.4264,10.32062 -0.7862,3.7086 -0.6387,3.93087 2.7854,4.20194 2.4572,0.19449 3.5554,0.8065 3.4282,1.91022 -0.1035,0.89325 0.3849,1.38229 1.0842,1.08683 0.6992,-0.29547 2.1756,-0.024 3.2812,0.60327 1.7386,0.98651 1.5366,1.56467 -1.4952,4.2823 l -3.5048,3.14183 h 3.5268 c 1.9394,0 3.8708,0.61295 4.2912,1.36212 1.1183,1.99308 -3.1749,10.94582 -6.9008,14.38992 -0.761,0.70335 -1.4556,2.69927 -1.544,4.43535 -0.1431,2.82947 0.2195,3.1566 3.5056,3.1566 2.0159,0 4.7779,-0.84038 6.1373,-1.86754 1.3597,-1.0271 3.0754,-1.86752 3.8131,-1.86752 1.3899,0 0.615,10.44219 -0.9721,13.09942 -0.4688,0.78514 -0.072,2.13714 0.8847,3.00459 1.6244,1.47442 2.2641,1.45713 9.8256,-0.26551 4.4484,-1.01345 8.3493,-2.02104 8.6682,-2.23909 0.3189,-0.21808 -2.0917,-1.32263 -5.3567,-2.4546 -3.2655,-1.13193 -6.3884,-2.52687 -6.9402,-3.09983 -1.8514,-1.92224 -1.0688,-4.93961 1.7302,-6.67162 5.2123,-3.22517 8.4342,-7.67008 6.9413,-9.57712 -1.0407,-1.32949 -0.5838,-2.61113 1.9285,-5.40669 4.3297,-4.8185 4.2248,-5.99848 -0.5352,-5.99848 -5.2408,0 -11.3809,-3.36569 -10.8427,-5.94376 0.3868,-1.85592 1.0975,-1.97409 10.3171,-1.71545 8.2009,0.23011 9.9014,0.0294 9.9014,-1.16716 0,-0.79476 -0.8465,-1.445 -1.8813,-1.445 -1.0348,0 -2.6139,-0.60328 -3.5087,-1.34061 -0.8949,-0.73734 -3.386,-1.6047 -5.5358,-1.92754 -6.3956,-0.96039 -7.8,-2.9079 -4.0597,-5.62994 1.7438,-1.26887 4.1717,-2.30702 5.3955,-2.30702 2.2144,0 10.9558,-5.49614 10.9558,-6.8884 0,-0.40153 -1.7168,-0.47223 -3.8154,-0.15715 -2.956,0.44391 -4.5278,0.0546 -6.9784,-1.7292 l -3.1634,-2.30215 5.4889,-2.63195 c 7.1654,-3.43589 10.3823,-7.7904 8.1882,-11.08322 -1.4151,-2.1233 -2.1591,-2.32712 -6.6168,-1.81221 -4.8196,0.55674 -9.4917,-1.03234 -9.4917,-3.22838 0,-1.10205 3.012,-2.59062 6.1455,-3.03736 1.5024,-0.21416 2.5456,-0.95569 2.3185,-1.64783 -0.2275,-0.69214 0.9349,-3.52855 2.5817,-6.30313 3.4431,-5.79988 2.5575,-7.19545 -3.7778,-5.95315 -2.7923,0.54748 -5.2907,0.46507 -7.3486,-0.24249 -4.549,-1.56404 -4.9385,-3.4064 -0.7199,-3.4064 3.673,0 14.9863,-6.13002 13.7785,-7.46596 -0.361,-0.39946 0.1959,-1.20956 1.2361,-1.80016 2.902,-1.64672 1.0698,-4.74028 -2.8077,-4.74028 -5.4551,0 -5.3212,-2.47975 0.3659,-6.77655 5.2335,-3.954 5.2371,-3.96229 1.8571,-4.2742 -5.8134,-0.53648 -6.2609,-1.8125 -1.7722,-5.05476 5.9821,-4.32122 7.5094,-6.79296 7.0883,-11.47317 -0.2018,-2.2596 0.058,-4.4022 0.5854,-4.76128 0.5252,-0.35908 0.9643,-2.78886 0.9758,-5.3995 0.053,-12.13784 6.1568,-6.85129 8.8906,7.70087 0.9008,4.79379 1.1569,5.04234 6.9375,6.73659 8.3623,2.45071 7.6465,5.5617 -1.2792,5.55999 -2.5543,-4.5e-4 -2.9277,0.48025 -2.7183,3.50163 0.1347,1.92618 0.2871,3.74982 0.3414,4.05258 0.054,0.30274 1.5476,1.00183 3.3186,1.55353 4.1954,1.30699 6.0518,6.72002 2.8531,8.31929 -2.0002,0.99999 -1.9898,1.29991 0.1241,3.50555 1.2713,1.32659 2.7848,2.412 3.3631,2.412 0.5784,0 2.1256,1.12048 3.438,2.49 2.1791,2.27394 2.1962,2.58506 0.1979,3.5842 -1.9443,0.97204 -1.9893,1.76198 -0.4032,7.08098 1.1035,3.70006 2.5293,6.08598 3.7335,6.24626 1.0715,0.1426 4.0653,2.38079 6.6532,4.97368 4.371,4.37946 9.0272,7.14055 10.427,6.18341 0.3273,-0.22375 -0.9427,-2.67392 -2.8222,-5.44477 -1.8795,-2.77088 -2.8507,-5.16966 -2.1588,-5.33063 0.6918,-0.161 3.5992,0.15176 6.4607,0.6951 9.729,1.84712 10.827,1.06952 5.0815,-3.59892 -1.9445,-1.5801 -4.6978,-2.87293 -6.118,-2.87293 -3.2564,0 -8.2542,-6.40039 -7.1834,-9.19972 0.9326,-2.43863 0.6938,-2.43408 7.2769,-0.13773 6.5603,2.28813 8.0718,2.32208 10.3907,0.23346 3.6925,-3.32584 2.3175,-5.28005 -5.2958,-7.52709 -12.1815,-3.59528 -13.9719,-4.37583 -13.9719,-6.09096 0,-1.2157 2.479,-2.22788 9.3018,-3.79771 15.1535,-3.48659 17.2704,-6.65375 5.8444,-8.74314 -3.4979,-0.63967 -6.7539,-1.86463 -7.2354,-2.72206 -0.5272,-0.94002 1.0891,-4.01415 4.0713,-7.74254 8.8945,-11.12021 8.9097,-10.59018 -0.4264,-15.06775 -4.4778,-2.14754 -8.2336,-4.2639 -8.3464,-4.70306 -0.7523,-2.93291 -0.2251,-3.13198 8.5165,-3.21485 4.9471,-0.047 9.7102,-0.38758 10.5846,-0.75706 0.8744,-0.3695 1.5896,-2.70784 1.5896,-5.19635 0,-4.48797 -0.058,-4.54709 -7.2149,-7.30864 -3.9687,-1.53122 -8.1131,-3.52376 -9.2107,-4.42787 -1.7992,-1.48232 -1.5982,-1.83679 2.0462,-3.60793 2.2227,-1.08032 6.755,-3.67441 10.0717,-5.7647 l 6.0303,-3.80059 -4.9583,-4.44135 c -5.3464,-4.79148 -6.0275,-6.16583 -3.0529,-6.16583 1.0463,0 2.281,-0.67485 2.7439,-1.4997 0.6009,-1.07085 1.8208,-1.33169 4.2651,-0.91221 4.9365,0.84705 7.1018,-3.16945 4.2185,-7.82446 -3.8413,-6.20135 -4.0261,-7.50505 -1.0647,-7.50505 2.2612,0 2.8363,-0.86419 3.6111,-5.42995 1.8731,-11.03533 6.2666,-10.02996 7.2562,1.66057 0.3495,4.12742 1.2394,7.5044 1.9777,7.5044 0.7934,0 0.9771,1.33074 0.4501,3.25269 -0.8804,3.2075 -0.8361,3.24494 3.1915,2.69421 l 4.0845,-0.5585 -0.4646,5.32852 c -0.2556,2.93066 -1.1461,5.79418 -1.9784,6.36328 -0.8322,0.5691 -1.5132,2.02881 -1.5132,3.24376 0,1.21502 -0.5291,2.91675 -1.1754,3.78175 -0.6465,0.86496 -0.8864,3.14841 -0.5338,5.07429 0.7935,4.32625 3.103,4.49786 9.4293,0.7003 2.5663,-1.54067 5.2713,-2.80127 6.0106,-2.80127 2.9211,0 -1.7943,8.27432 -7.8839,13.83428 -1.8653,1.70283 -3.1405,3.26741 -2.8342,3.47687 0.3064,0.20948 2.8743,-0.69591 5.7072,-2.01183 2.8321,-1.31601 5.4658,-2.1767 5.8519,-1.91273 0.7144,0.48859 -1.4625,5.7312 -4.135,9.9574 -0.8118,1.28391 -3.2366,3.91012 -5.3882,5.83599 -3.6402,3.2579 -3.7197,3.50161 -1.1468,3.50161 1.521,0 3.1465,0.42109 3.6114,0.93575 0.487,0.53863 3.1296,0.68614 6.2265,0.34757 6.1698,-0.67453 7.0566,0.63814 2.9903,4.42674 -4.7318,4.40892 -7.1701,8.17025 -7.1701,11.06119 0,2.85531 0.092,2.90001 3.0354,1.49001 1.6696,-0.79948 4.1819,-1.45359 5.583,-1.45359 2.2157,0 2.4273,0.48682 1.6246,3.73504 -0.8671,3.50898 -0.7214,3.73502 2.4076,3.73502 5.994,0 11.9326,1.91883 11.9326,3.85568 0,0.99302 -1.0755,2.06574 -2.3899,2.38385 -1.3145,0.31813 -4.1207,1.83193 -6.2361,3.36397 -4.6096,3.33867 -3.536,4.5068 4.843,5.27141 4.6092,0.42058 5.9189,0.94969 6.247,2.52409 0.3135,1.50172 -0.6127,2.23708 -3.7634,2.98799 -2.4372,0.5808 -4.7352,1.99575 -5.5126,3.39392 -0.7333,1.31882 -2.8963,2.80422 -4.8071,3.30085 -6.9916,1.81741 -5.556,5.92554 3.4246,9.80175 8.823,3.80799 9.3003,5.4224 3.35,11.32931 -2.8033,2.78299 -6.8549,5.76993 -9.0034,6.63768 -2.1777,0.87961 -3.9064,2.38502 -3.9064,3.40218 0,1.09944 5.2194,5.17379 13.1336,10.25222 l 13.1338,8.42768 -5.9639,3.50312 c -3.2797,1.9267 -7.1866,3.63055 -8.6811,3.7863 -5.1546,0.53725 -3.4503,3.10815 6.9022,10.41066 l 10.3855,7.32616 -2.6427,2.01145 c -1.4535,1.1063 -3.0263,2.75307 -3.4946,3.65952 -0.4683,0.90649 -2.5569,2.09 -4.6419,2.63002 -4.2253,1.09444 -9.9367,4.4353 -9.9367,5.81209 0,0.85337 5.2754,0.53007 14.2143,-0.87104 l 3.9712,-0.62246 -0.8472,5.54178 c -1.0488,6.85966 -5.2924,13.62463 -9.819,15.65244 -2.7028,1.21083 -3.422,2.31362 -3.422,5.24661 0,2.04241 0.23,3.71348 0.5105,3.71348 0.2811,0 3.2885,-1.06129 6.6832,-2.35847 l 6.1718,-2.3585 1.4404,2.8254 c 1.5869,3.11229 2.5034,3.35204 5.956,1.55821 1.4922,-0.77533 2.0464,-1.93475 1.548,-3.23845 -0.6517,-1.70304 -0.1999,-2.03074 2.7969,-2.03074 4.2797,0 4.3882,-0.54081 0.842,-4.2019 -3.206,-3.30999 -3.3891,-4.20192 -0.8629,-4.20192 3.3079,0 3.7113,-7.19798 0.6964,-12.42724 -3.4616,-6.00504 -2.505,-8.34587 2.1814,-5.33589 l 3.3091,2.12559 0.8794,-2.39564 c 0.484,-1.31762 0.023,-4.42799 -1.0571,-6.91198 -2.1379,-4.98633 -1.8293,-6.80267 1.1561,-6.80267 3.3127,0 3.5198,-2.27785 0.6576,-7.24191 -2.2519,-3.90618 -2.3954,-4.81981 -0.8218,-5.23269 1.4763,-0.38729 1.6152,-1.19462 0.6155,-3.57767 -1.8365,-4.38004 -1.601,-6.35791 0.7582,-6.35791 1.6866,0 2.052,-1.69162 2.0676,-9.57104 0.023,-9.71054 0.8189,-13.77294 2.7126,-13.77294 1.5917,0 2.6158,4.16906 3.6053,14.67593 0.4941,5.24714 1.4215,9.31922 2.061,9.04906 0.6394,-0.2702 1.1624,1.41125 1.1624,3.73649 0,3.37433 0.4134,4.11924 2.0485,3.69025 2.6603,-0.69794 2.6603,1.52273 0,5.87575 -2.6026,4.25919 -2.5889,4.32145 0.683,3.12417 2.2881,-0.83725 2.7316,-0.71011 2.7316,0.78349 0,0.98067 -0.9218,3.5694 -2.0487,5.75282 -2.5273,4.89687 -2.5797,4.5889 0.6826,4.00561 3.4247,-0.61234 3.6372,1.75449 0.6028,6.71953 -2.6244,4.29494 -1.6307,5.20089 2.673,2.43658 1.7956,-1.15338 3.619,-1.70509 4.0521,-1.22602 1.0265,1.1356 -1.1914,6.36472 -3.8976,9.18844 -1.1704,1.22092 -1.5349,2.21986 -0.8109,2.21986 0.7243,0 1.6966,-0.42021 2.1607,-0.93378 0.4642,-0.51357 1.7299,-0.93374 2.8119,-0.93374 2.8159,0 2.4425,4.33088 -0.7932,9.20612 -3.1156,4.69441 -3.3591,5.62342 -1.0625,4.05326 3.9185,-2.67918 5.4627,0.77625 1.8187,4.07013 -1.1028,0.99691 -2.0246,3.42165 -2.0484,5.38835 -0.042,3.49158 0.054,3.5613 4.0537,2.96053 3.3962,-0.51 4.0887,-0.32299 4.0489,1.09299 -0.027,0.93955 -0.9268,2.75877 -2.0002,4.04268 -1.7003,2.03363 -2.9334,10.27134 -1.5377,10.27134 0.281,0 3.0174,-0.60455 6.0804,-1.34341 5.2557,-1.2679 5.6176,-1.23944 6.4277,0.50624 0.472,1.01735 0.448,3.51183 -0.054,5.54329 -0.7178,2.90535 -0.4499,3.81501 1.2557,4.26247 2.3748,0.62308 2.8461,3.79301 0.8799,5.91783 -0.8395,0.90692 -0.5852,1.67748 0.7778,2.35898 1.6515,0.82558 1.7677,1.79558 0.6308,5.26407 -0.7665,2.33858 -1.7875,4.95373 -2.2689,5.81142 -1.2136,2.16196 1.6299,1.97467 6.0301,-0.39716 3.2386,-1.74586 3.6795,-1.78808 4.0926,-0.39181 0.2547,0.86063 -0.5138,3.60584 -1.7073,6.10052 -2.6592,5.5586 -2.6594,5.58548 -0.078,5.58548 3.6305,0 3.8497,2.78492 0.5934,7.53833 -2.8365,4.14071 -2.958,4.84128 -1.2214,7.05959 1.0604,1.3545 3.3964,3.14113 5.1913,3.97032 1.7951,0.82917 6.0294,3.21814 9.4095,5.30866 5.4607,3.3772 5.9707,4.02457 4.5762,5.80602 -1.1516,1.47114 -3.3815,2.16942 -8.3733,2.62226 -3.7423,0.33929 -6.8041,0.95258 -6.8041,1.36268 0,1.10874 6.9056,4.61629 9.0882,4.61629 1.0406,0 4.3509,1.06147 7.3567,2.35866 4.957,2.13954 5.3161,2.55154 3.8656,4.43534 -0.8795,1.14227 -2.1749,2.33409 -2.8787,2.6486 -0.7593,0.3394 -0.3989,2.34515 0.8872,4.93487 3.5324,7.11272 2.4878,11.20569 -1.9303,7.56588 -2.3317,-1.92077 -5.0887,-1.75587 -6.7805,0.40547 -2.71,3.46197 -1.4469,5.7789 6.0975,11.18687 7.1423,5.11968 7.5117,5.62396 7.5117,10.26493 0,4.55142 -0.1979,4.83826 -2.902,4.25098 -1.7188,-0.37293 -3.3155,-0.17231 -3.916,0.49212 -0.7687,0.85032 -2.0304,0.76236 -5.2148,-0.36365 -4.5507,-1.6088 -6.4602,-0.819 -5.1008,2.10945 0.8206,1.76806 8.6244,6.44056 14.0606,8.41864 2.9837,1.08572 3.073,1.53722 3.073,15.55859 v 14.44012 H 1003.5247 -11.209648 Z M 967.95395,880.88971 c -2.78686,-2.29588 -6.76673,-3.51384 -6.76673,-2.07079 0,0.6666 1.38279,1.68029 3.07285,2.25258 4.49172,1.52098 5.68923,1.46202 3.69388,-0.18173 z"
     id="path623" /></svg>
